<?xml version="1.0" standalone="no"?>
<!DOCTYPE svg PUBLIC "-//W3C//DTD SVG 1.1//EN" "http://www.w3.org/Graphics/SVG/1.1/DTD/svg11.dtd" >
<svg xmlns="http://www.w3.org/2000/svg" xmlns:xlink="http://www.w3.org/1999/xlink" version="1.1">
<metadata>
Created by FontForge 20161003 at Sat Nov 25 06:16:55 2017
 By www-data
</metadata>
<defs>
<font id="arialnarrow" horiz-adv-x="228" >
  <font-face 
    font-family="arialnarrow"
    font-weight="500"
    font-stretch="normal"
    units-per-em="1000"
    panose-1="0 0 0 0 0 0 0 0 0 0"
    ascent="800"
    descent="-200"
    x-height="518"
    cap-height="715"
    bbox="-182 -210 819 920"
    underline-thickness="50"
    underline-position="-155"
    unicode-range="U+0020-F002"
  />
<missing-glyph 
d="M21 0v625h190v-625h-190v0zM44 25h144v579h-144v-579v0z" />
    <glyph glyph-name=".notdef" 
d="M21 0v625h190v-625h-190v0zM44 25h144v579h-144v-579v0z" />
    <glyph glyph-name="glyph1" horiz-adv-x="0" 
 />
    <glyph glyph-name="glyph2" 
 />
    <glyph glyph-name="space" unicode=" " 
 />
    <glyph glyph-name="space" unicode="&#xa0;" 
 />
    <glyph glyph-name="exclam" unicode="!" 
d="M94 177l-22 380v158h89v-158l-20 -380h-47v0zM75 0v100h83v-100h-83v0z" />
    <glyph glyph-name="quotedbl" unicode="&#x22;" horiz-adv-x="291" 
d="M57 462l-20 136v117h82v-117l-18 -136h-44v0zM189 462l-19 136v117h82v-117l-20 -136h-43v0z" />
    <glyph glyph-name="numbersign" unicode="#" horiz-adv-x="456" 
d="M40 -12l34 207h-67v73h79l30 177h-109v73h121l35 210h60l-35 -210h126l35 210h61l-35 -210h69v-73h-81l-30 -177h111v-73h-123l-35 -207h-60l34 207h-126l-34 -207h-60v0zM146 268h126l30 177h-126l-30 -177v0z" />
    <glyph glyph-name="dollar" unicode="$" horiz-adv-x="456" 
d="M202 -103v88q-29 5 -52 12.5t-40 18.5q-17 12 -31 29.5t-25 40.5t-18 51t-9 60l73 18q5 -41 14.5 -69.5t22.5 -47.5q14 -18 30.5 -28t34.5 -12v280q-24 4 -48 15.5t-47 28.5q-15 11 -27.5 27t-21.5 36t-13.5 43.5t-4.5 50.5q0 28 5.5 53t15.5 47q10 23 23.5 40t29.5 29
q17 12 39 19.5t49 10.5v43h43v-42q23 -3 42 -9.5t35 -17.5q15 -10 28.5 -24.5t23.5 -32.5q11 -19 17.5 -42t9.5 -51l-74 -13q-6 48 -26.5 77t-55.5 38v-252q24 -9 40.5 -14.5t23.5 -8.5q16 -7 30 -17.5t25 -22.5q12 -13 21.5 -28.5t16.5 -34.5t10.5 -40t3.5 -44
q0 -47 -12 -86t-37 -68q-25 -30 -55.5 -45t-66.5 -17v-89h-43v0zM202 666q-20 -5 -36.5 -15t-29.5 -26q-12 -16 -18 -36.5t-6 -46.5q0 -43 22.5 -73t67.5 -47v244v0zM245 59q20 2 37.5 12.5t31.5 29.5q14 18 21 42.5t7 54.5q0 24 -5 43.5t-16 33.5q-10 14 -29 27t-47 23
v-266v0z" />
    <glyph glyph-name="percent" unicode="%" horiz-adv-x="729" 
d="M45 543q0 44 9 78.5t27 57.5q18 24 40 36t47 12q27 0 50 -12t41 -36q19 -23 28 -58.5t9 -82.5q0 -46 -9 -81.5t-28 -59.5q-18 -25 -40.5 -37t-49.5 -12q-25 0 -47 12t-40 36q-19 24 -28 60.5t-9 85.5v1zM171 667q-13 -1 -24.5 -8.5t-20.5 -21.5t-13.5 -39t-4.5 -61
t4.5 -61t13.5 -39t20.5 -21t25.5 -7t24.5 7t19.5 21t13.5 39.5t4.5 60.5q0 36 -4.5 61t-13.5 39t-20 21.5t-25 7.5v1zM171 -26l321 754h59l-320 -754h-60v0zM425 167q0 44 9 78.5t27 57.5q18 24 40 36t47 12q27 0 49.5 -12t41.5 -36q19 -23 28 -58.5t9 -82.5q0 -46 -9 -81.5
t-28 -59.5q-19 -23 -41.5 -35t-48.5 -12q-25 0 -47 12t-41 34q-18 25 -27 61t-9 85v1zM551 291q-13 -1 -25 -8.5t-20 -21.5q-9 -14 -13.5 -39t-4.5 -61t4.5 -61t13.5 -39t20.5 -21t25.5 -7q13 0 24 7t19 21q9 15 13.5 40t4.5 61q0 35 -4.5 60t-13.5 39q-8 14 -19 21.5
t-25 7.5v1z" />
    <glyph glyph-name="ampersand" unicode="&#x26;" horiz-adv-x="546" 
d="M390 84q-36 -49 -78 -72.5t-90 -23.5q-44 0 -78 15.5t-59 48.5q-25 32 -37.5 68.5t-12.5 75.5q0 66 35 120t105 94q-19 27 -32 49t-20 40q-7 17 -10.5 34.5t-3.5 33.5q0 34 10.5 62.5t32.5 51.5q21 23 46.5 34.5t55.5 11.5q29 0 53.5 -11t44.5 -33q20 -21 29.5 -48.5
t9.5 -60.5q0 -51 -27.5 -95t-83.5 -80l106 -162q8 20 15 45t13 53l74 -18q-10 -47 -22.5 -86t-28.5 -69q20 -33 42.5 -60t48.5 -50l-49 -68q-22 16 -44 41t-45 58v1zM243 457q23 16 38 30t22 27q7 12 10.5 26.5t3.5 30.5q0 20 -4.5 35t-14.5 26t-21.5 16.5t-25.5 5.5
t-26 -5.5t-22 -16.5q-10 -10 -15 -24.5t-5 -32.5q0 -17 7 -35.5t21 -38.5l32 -44v0zM344 153l-132 200q-28 -21 -47 -40t-30 -37t-16.5 -36.5t-5.5 -37.5q0 -25 7.5 -48t22.5 -46q15 -22 35 -33t44 -11q16 0 32.5 6t33.5 18t31.5 28t24.5 36v1z" />
    <glyph glyph-name="quotesingle" unicode="'" horiz-adv-x="157" 
d="M53 462l-19 134v119h82v-119l-19 -134h-44v0z" />
    <glyph glyph-name="parenleft" unicode="(" horiz-adv-x="272" 
d="M191 -210q-27 42 -51.5 93.5t-46.5 113.5q-22 60 -33 125.5t-11 135.5q0 119 35.5 236.5t106.5 232.5l52 1q-28 -59 -46.5 -103t-29.5 -76q-10 -32 -18.5 -66.5t-13.5 -72.5q-6 -38 -9 -76.5t-3 -76.5q0 -117 30 -233.5t90 -233.5h-52v0z" />
    <glyph glyph-name="parenright" unicode=")" horiz-adv-x="272" 
d="M81 -210h-52q60 117 90 233.5t30 233.5q0 38 -3 76.5t-9 76.5t-14 72.5t-19 66.5q-10 32 -28.5 76t-46.5 102l52 1q71 -116 106.5 -233.5t35.5 -236.5q0 -68 -10.5 -132.5t-31.5 -125.5q-22 -61 -46.5 -113.5t-53.5 -96.5v0z" />
    <glyph glyph-name="asterisk" unicode="*" horiz-adv-x="318" 
d="M24 584l18 69q32 -14 55 -26t38 -22q-4 45 -6 75.5t-2 46.5l58 1q-1 -25 -3 -55t-6 -68q20 12 43.5 24t50.5 23l19 -68q-26 -11 -51 -18t-49 -10q12 -13 29.5 -36.5t39.5 -56.5l-48 -40q-12 17 -25.5 43.5t-29.5 60.5q-15 -34 -28 -60.5t-24 -44.5l-47 42q22 33 38.5 56
t27.5 36q-26 6 -50.5 13t-47.5 14v1z" />
    <glyph glyph-name="plus" unicode="+" horiz-adv-x="479" 
d="M204 115v197h-160v82h160v194h68v-194h160v-82h-160v-197h-68v0z" />
    <glyph glyph-name="comma" unicode="," 
d="M74 0v100h82v-100q0 -29 -4.5 -52t-12.5 -39q-9 -17 -21 -29t-29 -21l-20 37q11 6 19.5 15t13.5 20q6 12 9 29t3 40h-40v0z" />
    <glyph glyph-name="hyphen" unicode="-" horiz-adv-x="272" 
d="M25 214v89h222v-89h-222v0z" />
    <glyph glyph-name="period" unicode="." 
d="M75 0v100h82v-100h-82v0z" />
    <glyph glyph-name="slash" unicode="/" 
d="M0 -12l169 740h59l-171 -740h-57v0z" />
    <glyph glyph-name="zero" unicode="0" horiz-adv-x="456" 
d="M32 353q0 89 12 157t37 114q24 47 60 70t83 23q42 0 75 -18.5t57 -56.5q29 -46 44 -118.5t15 -171.5q0 -90 -12 -158t-36 -115q-25 -46 -60.5 -68.5t-83.5 -22.5q-42 0 -76.5 20t-60.5 60q-27 41 -40.5 112t-13.5 172v1zM106 353q0 -89 8.5 -147.5t24.5 -87.5
q17 -30 38.5 -44.5t47.5 -14.5q25 0 45.5 15t37.5 45t25 88t8 145t-8.5 145.5t-25.5 87.5q-16 30 -38 44.5t-48 14.5q-25 0 -45 -15t-37 -45q-16 -30 -24.5 -88t-8.5 -144v1z" />
    <glyph glyph-name="one" unicode="1" horiz-adv-x="456" 
d="M304 0h-73v560q-12 -16 -28.5 -31t-37.5 -30q-21 -16 -40.5 -27t-37.5 -19v86q30 16 56.5 36.5t49.5 45.5t38.5 49t25.5 47l47 1v-718v0z" />
    <glyph glyph-name="two" unicode="2" horiz-adv-x="456" 
d="M412 84v-84h-388q-1 25 7 53.5t24 59.5q17 32 46.5 69.5t72.5 80.5q50 50 83 89t49 67q16 27 23.5 52.5t7.5 49.5q0 27 -7.5 49.5t-24.5 39.5q-16 17 -35.5 25.5t-42.5 8.5q-25 0 -45.5 -9t-37.5 -28q-16 -18 -24 -44.5t-8 -61.5l-74 10q4 51 18.5 90t39.5 64
q26 26 59 39t74 13q45 0 79 -15t57 -45q23 -31 34.5 -65.5t11.5 -72.5q0 -34 -9 -66.5t-27 -64.5q-18 -31 -52.5 -73t-84.5 -94q-32 -33 -53 -55.5t-30 -34.5q-10 -12 -17.5 -24t-13.5 -24l288 1v0z" />
    <glyph glyph-name="three" unicode="3" horiz-adv-x="456" 
d="M33 188l72 12q11 -71 39.5 -106t74.5 -35q25 0 46 10t39 31t27 48t9 60q0 32 -8 57t-25 44q-16 19 -36.5 28.5t-44.5 9.5q-10 0 -23 -2.5t-28 -7.5l8 79l11 -1q27 -1 49 7t38 24q17 17 25 38.5t8 49.5q0 25 -7 45t-21 35q-13 16 -30.5 23.5t-37.5 7.5t-38 -8t-32 -24
t-23 -40.5t-13 -56.5l-72 17q7 45 22.5 79.5t39.5 57.5q23 24 52 35.5t63 11.5q36 0 66 -13t55 -39q26 -27 38 -60t12 -73q0 -25 -5 -46.5t-16 -40.5q-10 -19 -25 -33.5t-34 -25.5q17 -4 31.5 -12.5t26.5 -19.5q11 -11 20.5 -26t16.5 -34t10.5 -40t3.5 -44
q0 -49 -14.5 -89.5t-43.5 -71.5t-63.5 -46t-75.5 -15q-37 0 -69.5 12.5t-58.5 39.5q-26 28 -40.5 64.5t-18.5 82.5v1z" />
    <glyph glyph-name="four" unicode="4" horiz-adv-x="456" 
d="M263 0v171h-254v80l268 464h58v-464h80v-80h-80v-171h-72v0zM263 251v323l-183 -323h183v0z" />
    <glyph glyph-name="five" unicode="5" horiz-adv-x="456" 
d="M32 187l76 8q5 -35 14.5 -60.5t25.5 -42.5q15 -16 33 -24.5t39 -8.5q26 0 47.5 11.5t40.5 35.5q19 23 28 55.5t9 72.5q0 38 -9 68t-27 51t-40.5 31.5t-49.5 10.5q-16 0 -31.5 -4.5t-29.5 -13.5t-25.5 -21.5t-19.5 -29.5l-68 12l57 368h292v-84h-234l-32 -193
q26 22 53.5 33t57.5 11q37 0 69 -15.5t59 -47.5q27 -31 40.5 -73.5t13.5 -95.5q0 -52 -13.5 -97t-40.5 -83q-27 -37 -63.5 -55t-82.5 -18q-38 0 -70.5 12.5t-58.5 38.5q-26 27 -41 64t-19 83v1z" />
    <glyph glyph-name="six" unicode="6" horiz-adv-x="456" 
d="M406 540l-72 -7q-5 26 -12.5 46t-17.5 32q-15 17 -32 25.5t-37 8.5q-31 0 -56.5 -19.5t-44.5 -58.5q-16 -34 -24.5 -84t-8.5 -115q12 23 27.5 41t34.5 30t39 18t41 6q35 0 65.5 -15.5t55.5 -47.5q26 -32 39 -74.5t13 -95.5q0 -35 -6 -68t-20 -62q-13 -29 -29.5 -50.5
t-37.5 -35.5q-20 -13 -42.5 -19.5t-47.5 -6.5q-44 0 -81 19t-66 59q-28 41 -42.5 107.5t-14.5 159.5q0 104 14.5 178t44.5 118q29 44 67 66t84 22q34 0 62 -11t50 -34q23 -23 37 -56t18 -77v1zM112 231q0 -39 9 -70.5t27 -54.5q19 -24 40 -35.5t45 -11.5q22 0 41 11t35 33
q17 23 25.5 53t8.5 69q0 38 -8 67.5t-25 50.5t-37.5 31.5t-43.5 10.5q-24 0 -44.5 -10.5t-37.5 -31.5q-18 -20 -26.5 -48.5t-8.5 -64.5v1z" />
    <glyph glyph-name="seven" unicode="7" horiz-adv-x="456" 
d="M37 622v84h380v-68q-43 -56 -80 -128t-69 -161q-32 -88 -51 -176t-24 -173h-74q1 43 8.5 95.5t20.5 112.5q14 60 32.5 117t41.5 111q24 54 49.5 100.5t52.5 84.5l-287 1v0z" />
    <glyph glyph-name="eight" unicode="8" horiz-adv-x="456" 
d="M143 388q-22 9 -38.5 22.5t-27.5 32.5q-10 18 -16 40.5t-6 49.5q0 41 12 74.5t36 58.5q24 26 54.5 38.5t66.5 12.5q37 0 67.5 -13t54.5 -39t36.5 -60t12.5 -75q0 -25 -5.5 -47t-16.5 -40q-10 -18 -26.5 -32t-38.5 -24q27 -10 47.5 -27.5t34.5 -40.5t21 -52t7 -64
q0 -48 -13.5 -87t-41.5 -69q-28 -31 -62 -45t-75 -14q-42 0 -76.5 14t-62.5 45q-28 30 -41.5 69.5t-13.5 88.5q0 36 7.5 65.5t21.5 52.5q15 24 35.5 40t46.5 24v1zM129 537q0 -28 7.5 -49t20.5 -36q14 -16 31.5 -24t37.5 -8t36.5 8t30.5 23q14 16 21 35.5t7 44.5t-7.5 45.5
t-21.5 36.5t-30.5 24t-36.5 8q-19 0 -36.5 -7.5t-31.5 -23.5q-13 -16 -20.5 -35.5t-7.5 -42.5v1zM105 206q0 -34 9 -60.5t27 -46.5q17 -20 38.5 -30t46.5 -10t46 10t38 29q17 20 26 45.5t9 58.5t-9 59.5t-27 46.5t-39 30.5t-46 10.5t-46 -10t-38 -30t-26 -46t-9 -58v1z" />
    <glyph glyph-name="nine" unicode="9" horiz-adv-x="456" 
d="M43 165l69 8q8 -58 33 -86t65 -28q18 0 34.5 6t31.5 18q14 13 27 35t23 53q10 32 15 68.5t5 78.5v18q-11 -23 -26 -40t-34 -29q-19 -13 -38.5 -19.5t-39.5 -6.5q-36 0 -67 16t-57 47q-25 32 -38.5 74.5t-13.5 97.5q0 56 13.5 100t40.5 77q27 32 60 48t71 16q28 0 53.5 -9
t48.5 -27q24 -18 42.5 -44.5t31.5 -61.5t19 -86t6 -117q0 -73 -6.5 -130.5t-20.5 -98.5q-14 -40 -33 -70t-43 -49t-50.5 -27.5t-56.5 -8.5q-33 0 -60.5 11t-50.5 33q-22 23 -35.5 56t-18.5 76v1zM338 481q0 37 -8.5 67.5t-25.5 52.5t-36.5 32.5t-41.5 10.5q-23 0 -44 -11.5
t-39 -34.5q-18 -24 -27.5 -55t-9.5 -70q0 -35 9 -63.5t26 -48.5q17 -21 38 -31.5t45 -10.5t44.5 10.5t36.5 31.5q17 21 25 51t8 68v1z" />
    <glyph glyph-name="colon" unicode=":" 
d="M75 418v100h82v-100h-82v0zM75 0v100h82v-100h-82v0z" />
    <glyph glyph-name="semicolon" unicode=";" 
d="M74 418v100h82v-100h-82v0zM74 0v100h82v-100q0 -29 -4.5 -52t-12.5 -39q-9 -17 -21 -29t-29 -21l-20 37q11 6 19.5 15t13.5 20q6 12 9 29t3 40h-40v0z" />
    <glyph glyph-name="less" unicode="&#x3c;" horiz-adv-x="479" 
d="M43 312v83l389 200v-88l-308 -154l308 -156v-87l-389 202v0z" />
    <glyph glyph-name="equal" unicode="=" horiz-adv-x="479" 
d="M432 420h-388v82h388v-82v0zM432 203h-388v82h388v-82v0z" />
    <glyph glyph-name="greater" unicode="&#x3e;" horiz-adv-x="479" 
d="M432 312l-389 -202v87l309 156l-309 154v88l389 -200v-83v0z" />
    <glyph glyph-name="question" unicode="?" horiz-adv-x="456" 
d="M187 176v26q0 34 5.5 64t17.5 54q8 17 25.5 39.5t44.5 50.5q18 20 30 35.5t18 27.5q5 12 8 25t3 27q0 27 -8.5 50t-25.5 42t-36.5 28t-42.5 9q-22 0 -41.5 -8.5t-35.5 -25.5q-16 -18 -26 -45.5t-15 -65.5l-74 12q5 51 20.5 90t40.5 64q26 26 58.5 39t72.5 13t73 -14
t60 -41q27 -28 40.5 -63t13.5 -78q0 -23 -4.5 -44.5t-13.5 -41.5q-9 -19 -26.5 -43t-43.5 -53q-22 -25 -36.5 -44t-19.5 -33q-6 -14 -9 -38t-4 -59l-69 1v0zM183 0v100h82v-100h-82v0z" />
    <glyph glyph-name="at" unicode="@" horiz-adv-x="832" 
d="M463 79q-14 -21 -29 -36t-31 -25t-31.5 -14.5t-29.5 -4.5q-29 0 -53.5 12.5t-44.5 38.5q-25 32 -37 73.5t-12 92.5q0 41 9 81t26 79t37.5 67.5t44.5 47.5t47.5 28t45.5 9q17 0 33 -6t32 -17t29.5 -27.5t24.5 -39.5l14 77h72l-58 -328q-6 -35 -9 -54t-3 -23q0 -7 2 -12.5
t6 -10.5q5 -4 9.5 -6.5t10.5 -2.5q11 0 26.5 8.5t34.5 25.5q20 17 36.5 42t29.5 58q14 32 20.5 66.5t6.5 71.5q0 44 -9 83t-28 74t-45 62.5t-59 47.5t-69 29.5t-75 9.5q-46 0 -87.5 -12t-79.5 -38q-37 -25 -67.5 -61.5t-53.5 -86.5q-23 -49 -35 -105t-12 -120
q0 -59 10.5 -110t31.5 -92q21 -40 51 -71.5t69 -53.5t85 -33t100 -11q48 0 90 10.5t79 30.5q37 19 64.5 46t46.5 59l72 1q-12 -29 -31.5 -57t-47.5 -55q-27 -27 -57.5 -47.5t-63.5 -33.5t-71 -19.5t-82 -6.5q-63 0 -117 12.5t-98 38.5q-44 25 -78.5 62.5t-60.5 86.5
q-25 48 -38 107.5t-13 129.5q0 74 14 141t42 127q29 60 64 104t78 72q43 29 93 43t107 14q48 0 91 -12t81 -35q38 -24 69 -58t54 -78q23 -45 34.5 -94t11.5 -103q0 -73 -21.5 -137.5t-63.5 -120.5q-36 -46 -75 -68.5t-81 -22.5q-20 0 -34.5 3.5t-22.5 13.5q-9 11 -14 26
t-7 36v1zM270 211q0 -35 6.5 -60.5t19.5 -44.5q14 -18 29 -27.5t31 -9.5q14 0 30 7.5t32 21.5q17 14 32 36.5t27 52.5t18 62t6 65q0 35 -6.5 61t-20.5 44q-13 18 -29.5 27t-36.5 9q-15 0 -30 -6t-30 -19t-28.5 -36t-25.5 -55q-12 -33 -18 -65t-6 -64v1z" />
    <glyph glyph-name="A" unicode="A" horiz-adv-x="546" 
d="M0 0l224 715h84l240 -715h-89l-68 216h-246l-64 -216h-81v0zM168 293h199l-61 199q-15 44 -25.5 81.5t-16.5 65.5q-6 -34 -13.5 -68.5t-18.5 -68.5l-64 -209v0z" />
    <glyph glyph-name="B" unicode="B" horiz-adv-x="546" 
d="M60 0v715h220q34 -1 60.5 -6t45.5 -15q20 -10 36 -26.5t28 -38.5q13 -22 19 -46.5t6 -50.5q0 -25 -5 -47t-16 -42t-26 -36t-35 -28q26 -9 46 -24.5t35 -38.5q15 -22 22 -49.5t7 -60.5q0 -32 -6 -60.5t-20 -53.5q-13 -25 -31 -42.5t-40 -28.5t-53 -16t-69 -5h-224v0z
M138 415h127q24 -1 42 0.5t28 4.5q16 5 27.5 14t19.5 21t12 28.5t4 36.5t-3.5 36t-10.5 29t-17.5 22t-22.5 13q-12 5 -34.5 7.5t-54.5 2.5l-117 1v-216v0zM138 84h146q24 -1 41.5 1.5t29.5 6.5q17 6 29.5 16.5t21.5 25.5q8 14 12.5 32.5t4.5 40.5q0 20 -4.5 37t-12.5 31
t-19 24.5t-25 16.5q-14 7 -36.5 10t-52.5 3l-135 1v-246v0z" />
    <glyph glyph-name="C" unicode="C" horiz-adv-x="591" 
d="M479 250l79 -23q-13 -62 -36 -107t-55 -74q-32 -30 -71.5 -44t-85.5 -14q-41 0 -76 9.5t-64 28.5q-28 20 -52 52t-43 76q-18 44 -27 96t-9 111t9 109.5t27 90.5q19 41 44 72t56 52q32 21 67 31.5t74 10.5q43 0 79 -13.5t67 -39.5q31 -27 52 -66t33 -90l-76 -21
q-19 73 -58.5 110.5t-98.5 37.5q-29 0 -54 -7.5t-47 -22.5t-39 -38t-30 -55q-13 -31 -19 -71.5t-6 -89.5q0 -73 13 -128t38 -92q26 -37 60.5 -55.5t77.5 -18.5q32 0 59.5 11.5t50.5 34.5t38.5 56.5t22.5 79.5v1z" />
    <glyph glyph-name="D" unicode="D" horiz-adv-x="591" 
d="M61 0v715h203q38 -1 66.5 -4.5t47.5 -9.5q26 -8 48 -23.5t41 -38.5t33.5 -51.5t24.5 -63.5q11 -34 16 -75.5t5 -88.5q0 -61 -9 -112.5t-26 -93.5q-18 -42 -41 -72t-51 -48t-64.5 -26t-81.5 -8h-212v0zM139 84h125q38 -1 66.5 5t47.5 19q20 12 35 32t25 47q14 36 21 79.5
t7 94.5q0 55 -7.5 97.5t-21.5 73.5q-15 32 -34 53t-42 31q-16 7 -40.5 10.5t-58.5 3.5l-123 1v-547v0z" />
    <glyph glyph-name="E" unicode="E" horiz-adv-x="546" 
d="M64 0v715h425v-84h-347v-219h325v-84h-325v-244h360v-84h-438v0z" />
    <glyph glyph-name="F" unicode="F" horiz-adv-x="500" 
d="M68 0v715h396v-84h-318v-222h275v-84h-275v-325h-78v0z" />
    <glyph glyph-name="G" unicode="G" horiz-adv-x="638" 
d="M339 280v84l249 1v-266q-28 -29 -58 -50t-60 -35q-31 -13 -62.5 -19.5t-63.5 -6.5q-43 0 -81 10t-72 31q-34 22 -60.5 53.5t-46.5 72.5q-19 41 -29 90.5t-10 107.5q0 59 10 110t29 94q20 44 46 76t58 52q32 21 70 31.5t81 10.5q32 0 60.5 -6t52.5 -18t44 -29t36 -39
t27.5 -52.5t19.5 -68.5l-70 -22q-7 29 -16 51.5t-20 37.5q-10 15 -24.5 27t-32.5 20q-17 9 -36.5 13t-42.5 4q-31 0 -59 -7.5t-51 -23.5q-22 -15 -41 -39t-33 -57t-21 -73t-7 -87q0 -71 15 -125t45 -90q30 -35 69 -53t87 -18q23 0 46.5 5.5t47.5 16.5t43.5 24t33.5 28v134
h-173v0z" />
    <glyph glyph-name="H" unicode="H" horiz-adv-x="591" 
d="M62 0v715h78v-294h305v294h78v-715h-78v337h-305v-337h-78v0z" />
    <glyph glyph-name="I" unicode="I" 
d="M78 0v715h77v-715h-77v0z" />
    <glyph glyph-name="J" unicode="J" horiz-adv-x="410" 
d="M21 203l70 11q2 -41 8.5 -69.5t17.5 -43.5t26.5 -22.5t35.5 -7.5q14 0 26.5 4t22.5 11q11 8 17.5 17.5t10.5 21.5q5 16 8 40t3 56v494h77v-487q0 -67 -10.5 -113.5t-32.5 -74.5q-22 -27 -52 -39.5t-70 -12.5q-38 0 -66.5 11.5t-47.5 35.5q-22 28 -33 70t-11 97v1z" />
    <glyph glyph-name="K" unicode="K" horiz-adv-x="546" 
d="M60 0v715h78v-355l291 355h106l-247 -290l257 -425h-102l-209 362l-96 -114v-248h-78v0z" />
    <glyph glyph-name="L" unicode="L" horiz-adv-x="456" 
d="M58 0v715h78v-631h289v-84h-367v0z" />
    <glyph glyph-name="M" unicode="M" horiz-adv-x="683" 
d="M61 0v715h116l139 -507l28 -105q5 19 13 47.5t18 65.5l141 499h105v-715h-75v599l-171 -599h-70l-170 609v-609h-74v0z" />
    <glyph glyph-name="N" unicode="N" horiz-adv-x="591" 
d="M61 0v715h79l309 -562v562h74v-715h-80l-308 562v-562h-74v0z" />
    <glyph glyph-name="O" unicode="O" horiz-adv-x="638" 
d="M41 348q0 91 20.5 161.5t60.5 119.5t90 73.5t110 24.5q39 0 74.5 -11t67.5 -33t57 -54t44 -74q19 -41 28.5 -91t9.5 -108q0 -79 -18.5 -144t-54.5 -115q-40 -55 -91.5 -82t-116.5 -27t-117.5 27.5t-91.5 84.5q-36 51 -54 112.5t-18 134.5v1zM121 347q0 -68 15 -119
t43 -88q29 -36 65 -54.5t77 -18.5q43 0 79 18.5t65 55.5t43 91t14 126q0 46 -7.5 87t-21.5 78q-12 28 -29 50.5t-40 38.5q-23 17 -48.5 25t-52.5 8q-44 0 -80 -18t-65 -55q-28 -37 -42.5 -93t-14.5 -133v1z" />
    <glyph glyph-name="P" unicode="P" horiz-adv-x="546" 
d="M63 0v715h221q39 -1 67.5 -4.5t47.5 -9.5q26 -10 46 -27t35 -42q16 -25 23.5 -56t7.5 -68q0 -48 -12.5 -87.5t-37.5 -69.5q-24 -31 -66.5 -46t-103.5 -15l-150 1v-291h-78v0zM141 375h151q36 -1 62.5 7t42.5 24q17 17 25.5 41.5t8.5 56.5q0 22 -4.5 40t-12.5 33t-18 25.5
t-21 16.5q-12 5 -33 8t-51 3l-150 1v-256v0z" />
    <glyph glyph-name="Q" unicode="Q" horiz-adv-x="638" 
d="M510 76q27 -23 52 -39.5t47 -27.5l-23 -64q-32 14 -63.5 35.5t-62.5 50.5q-33 -22 -68.5 -32.5t-74.5 -10.5q-64 0 -116.5 27.5t-92.5 83.5q-36 51 -53.5 115t-17.5 142q0 58 9.5 108.5t28.5 92.5q20 43 45.5 75t56.5 53t66 31.5t75 10.5q39 0 74.5 -11t66.5 -33
q32 -22 57.5 -53.5t44.5 -73.5t28 -91.5t9 -106.5q0 -45 -6 -85.5t-17 -76.5q-12 -36 -28 -66t-37 -55v1zM338 197q33 -12 61 -29t50 -40q35 38 52 96t17 134q0 46 -6.5 85.5t-20.5 71.5q-13 32 -31 56.5t-41 40.5q-23 17 -48 25t-53 8q-43 0 -79 -18t-65 -55
q-28 -36 -42.5 -90t-14.5 -126q0 -70 14.5 -124t43.5 -91t64.5 -55.5t78.5 -18.5q20 0 39.5 4.5t38.5 14.5q-18 14 -37.5 24.5t-39.5 16.5l19 70v0z" />
    <glyph glyph-name="R" unicode="R" horiz-adv-x="591" 
d="M62 0v715h261q41 -1 71 -5.5t49 -15.5q20 -10 35.5 -26.5t28.5 -39.5q12 -23 18.5 -50t6.5 -59q0 -40 -10.5 -72.5t-32.5 -58.5q-21 -25 -51.5 -41t-70.5 -23q16 -10 28 -19.5t21 -19.5q17 -21 33 -43.5t29 -48.5l102 -193h-98l-78 148q-22 43 -39.5 72.5t-28.5 44.5
q-12 15 -23 25.5t-22 15.5t-26 7.5t-35 2.5l-90 1v-317h-78v0zM140 399h167q28 -1 48.5 2.5t34.5 10.5q14 6 25.5 16.5t19.5 24.5t12.5 30.5t4.5 35.5q0 27 -8 48.5t-24 36.5q-16 16 -39.5 23.5t-54.5 7.5l-186 1v-237v0z" />
    <glyph glyph-name="S" unicode="S" horiz-adv-x="546" 
d="M37 229l73 8q3 -30 9.5 -53t16.5 -40q11 -16 26 -29t34 -24q20 -10 41 -15t46 -5q35 0 61.5 9t45.5 25q20 17 29.5 39t9.5 49q0 16 -3.5 30t-10.5 26t-17.5 21.5t-24.5 17.5t-44.5 18.5t-77.5 23.5q-21 6 -38.5 12t-32.5 13q-14 6 -26 12t-21 12q-17 13 -30.5 29
t-23.5 35t-15 40.5t-5 45.5q0 44 14 79.5t42 62.5q29 28 66.5 42t85.5 14q32 0 60.5 -6.5t53.5 -19.5t44 -31.5t32 -43.5q14 -24 21 -52.5t8 -60.5l-74 -6q-3 34 -13.5 60t-28.5 42q-18 17 -43.5 25.5t-57.5 8.5q-33 0 -58 -7.5t-43 -22.5q-17 -14 -25.5 -33.5t-8.5 -42.5
q0 -22 6 -38.5t19 -28.5q6 -6 16.5 -12t24.5 -12q15 -7 33 -13t40 -12q44 -12 74 -22.5t48 -18.5q27 -13 47.5 -31t34.5 -41q14 -22 20.5 -49t6.5 -58t-7.5 -58.5t-21.5 -53.5q-14 -25 -33.5 -44t-44.5 -33q-25 -12 -55 -18t-65 -6q-54 0 -97.5 15.5t-75.5 47.5
q-32 33 -49 77.5t-18 99.5v1z" />
    <glyph glyph-name="T" unicode="T" horiz-adv-x="500" 
d="M213 0v631h-193v84h465v-84h-194v-631h-78v0z" />
    <glyph glyph-name="U" unicode="U" horiz-adv-x="591" 
d="M446 715h78v-413q0 -53 -4.5 -95.5t-15.5 -76.5q-10 -33 -28.5 -59t-45.5 -46q-26 -19 -60.5 -28t-75.5 -9q-58 0 -101.5 16.5t-72.5 51.5q-28 35 -43 96t-15 149v414h78v-413q0 -50 4 -84.5t11 -56.5q8 -22 20.5 -38.5t29.5 -28.5q17 -11 38 -16.5t46 -5.5q41 0 71 11.5
t49 35.5q19 23 28 69t9 113v414v0z" />
    <glyph glyph-name="V" unicode="V" horiz-adv-x="546" 
d="M231 0l-228 715h84l153 -520q9 -31 16.5 -60t14.5 -58q7 29 14.5 58.5t16.5 58.5l159 521h79l-229 -715h-80v0z" />
    <glyph glyph-name="W" unicode="W" horiz-adv-x="773" 
d="M166 0l-155 715h79l90 -469q7 -37 13 -73.5t12 -73.5l26 133l112 483h94l83 -362q15 -67 27 -130.5t19 -123.5q6 35 13 73.5t16 81.5l92 461h79l-162 -715h-74l-124 545l-19 84q-2 -13 -4 -24l-4 -22q-3 -10 -5 -20t-4 -19l-124 -544h-80v0z" />
    <glyph glyph-name="X" unicode="X" horiz-adv-x="546" 
d="M3 0l227 373l-200 342h93l106 -183q17 -29 28.5 -51.5t18.5 -37.5q9 19 21 39t26 42l118 191h84l-206 -337l222 -378h-95l-148 255q-6 10 -12.5 22t-13.5 25q-10 -19 -17 -32.5t-11 -21.5l-147 -248h-94v0z" />
    <glyph glyph-name="Y" unicode="Y" horiz-adv-x="546" 
d="M228 0v303l-226 412h95l115 -215q17 -33 32 -63.5t28 -59.5q13 29 29 60.5t35 66.5l114 211h90l-234 -412v-303h-78v0z" />
    <glyph glyph-name="Z" unicode="Z" horiz-adv-x="500" 
d="M17 0v87l301 459q8 11 15.5 22.5t15.5 21.5q7 11 15 21t15 19l-328 1v84h420v-84l-329 -497l-36 -50h375v-84h-464v0z" />
    <glyph glyph-name="bracketleft" unicode="[" 
d="M57 -198v913h159v-72h-88v-768h88v-73h-159v0z" />
    <glyph glyph-name="backslash" unicode="\" 
d="M169 -12l-169 740h58l170 -740h-59v0z" />
    <glyph glyph-name="bracketright" unicode="]" 
d="M176 -198h-159v73h87v768h-87v72h159v-913v0z" />
    <glyph glyph-name="asciicircum" unicode="^" horiz-adv-x="384" 
d="M95 336h-74l142 392h58l142 -392h-72l-100 292l-96 -292v0z" />
    <glyph glyph-name="underscore" unicode="_" horiz-adv-x="456" 
d="M-5 -75h465v-50h-465v50v0z" />
    <glyph glyph-name="grave" unicode="`" horiz-adv-x="272" 
d="M186 583h-59l-92 136h97l54 -136v0z" />
    <glyph glyph-name="a" unicode="a" horiz-adv-x="456" 
d="M330 63q-19 -20 -37.5 -33.5t-38.5 -23.5q-19 -8 -39.5 -12.5t-41.5 -4.5q-33 0 -59.5 9t-46.5 29q-19 20 -29 47t-10 61q0 23 4.5 42.5t13.5 36.5q10 17 22.5 31t28.5 24q17 10 41 17t57 11q44 6 76 14t53 17v23q0 25 -5 44t-14 30q-13 15 -34 23t-48 8q-25 0 -44 -5
t-32 -16q-12 -10 -21 -29.5t-15 -48.5l-71 13q8 41 23.5 71.5t37.5 49.5q23 19 56 28.5t76 9.5q34 0 60 -6.5t45 -18.5q20 -13 32 -28.5t16 -34.5q5 -18 7.5 -45.5t2.5 -62.5v-116q0 -62 1.5 -101t3.5 -55t6.5 -31.5t11.5 -29.5h-75q-6 12 -9 27.5t-5 34.5v1zM324 260
q-20 -11 -49.5 -19.5t-68.5 -14.5q-22 -4 -38 -8.5t-25 -9.5t-16.5 -12t-12.5 -17q-4 -9 -7 -19.5t-3 -22.5q0 -19 6 -33.5t17 -25.5q12 -11 28 -16.5t36 -5.5t37 5t33 15t28 23.5t19 29.5q8 17 12 41.5t4 56.5v33v0z" />
    <glyph glyph-name="b" unicode="b" horiz-adv-x="456" 
d="M119 0h-67v715h72v-255q11 16 24 29.5t28 21.5q14 9 30 13.5t34 4.5q25 0 48 -7.5t43 -22.5t36.5 -37.5t28.5 -52.5q12 -31 18 -67.5t6 -79.5q0 -66 -13.5 -117t-41.5 -87q-28 -35 -60 -52t-69 -17q-18 0 -35 4.5t-31 12.5q-15 10 -27.5 24t-23.5 33v-63v0zM118 263
q0 -41 3.5 -71.5t10.5 -50.5q8 -20 18.5 -35t23.5 -26q14 -10 28.5 -15.5t30.5 -5.5q23 0 42.5 12.5t36.5 37.5t26 62.5t9 87.5q0 51 -8.5 88.5t-25.5 61.5q-16 24 -36.5 36t-44.5 12q-22 0 -42 -12.5t-37 -38.5q-18 -25 -26.5 -61t-8.5 -83v1z" />
    <glyph glyph-name="c" unicode="c" horiz-adv-x="410" 
d="M331 189l71 -11q-6 -47 -21.5 -82.5t-39.5 -59.5q-25 -25 -54 -36t-64 -11q-42 0 -76.5 16t-61.5 50q-27 35 -40.5 85.5t-13.5 117.5q0 68 13.5 118.5t41.5 84.5q27 34 62 51t78 17q33 0 61 -10.5t50 -30.5q23 -21 37 -51.5t21 -71.5l-70 -12q-5 25 -14 44.5t-22 32.5
q-13 14 -28 20.5t-33 6.5q-26 0 -48.5 -12t-39.5 -36q-17 -23 -26 -60.5t-9 -88.5q0 -53 8.5 -91.5t24.5 -62.5q17 -23 38.5 -35t47.5 -12q20 0 38 8t32 24q15 16 24 40t13 57v1z" />
    <glyph glyph-name="d" unicode="d" horiz-adv-x="456" 
d="M328 0v65q-10 -20 -22.5 -34t-27.5 -24q-16 -9 -32.5 -13.5t-34.5 -4.5q-37 0 -69.5 16.5t-60.5 52.5q-27 35 -41 85.5t-14 114.5q0 44 6 81.5t19 68.5q12 31 28.5 53.5t36.5 37.5t43 22.5t48 7.5q17 0 33.5 -4.5t32.5 -14.5q15 -10 27.5 -23t22.5 -30v258h72v-715h-67v0
zM100 258q0 -51 9 -88.5t26 -61.5q17 -25 37.5 -37t43.5 -12t43 12t37 35t25.5 58.5t8.5 83.5q0 54 -8.5 93.5t-25.5 64.5q-17 26 -38 38.5t-47 12.5q-22 0 -41.5 -12.5t-36.5 -36.5q-16 -24 -24.5 -61.5t-8.5 -89.5v1z" />
    <glyph glyph-name="e" unicode="e" horiz-adv-x="456" 
d="M343 166l74 -11q-9 -42 -25.5 -73.5t-41.5 -52.5q-24 -21 -54 -30.5t-66 -9.5q-45 0 -81.5 16t-64.5 50q-28 35 -42 84.5t-14 113.5q0 68 14 119t42 86q29 35 64.5 53t78.5 18q41 0 75.5 -17.5t62.5 -52.5q28 -34 41.5 -84.5t13.5 -115.5l-1 -23h-317q2 -44 12 -77
t29 -56q18 -22 40 -33t47 -11q41 0 69 26.5t44 79.5v1zM106 309h238q-3 32 -10 57.5t-19 41.5q-18 24 -40 36.5t-48 12.5q-25 0 -45.5 -10.5t-37.5 -30.5t-26.5 -47t-11.5 -61v1z" />
    <glyph glyph-name="f" unicode="f" 
d="M73 0v450h-64v68h64v55q0 30 3 52.5t9 38.5q7 15 16.5 27t22.5 19q14 8 30.5 12.5t35.5 4.5q15 0 32 -2t35 -7l-10 -76q-12 1 -22.5 2.5t-20.5 1.5q-16 0 -27.5 -4.5t-18.5 -12.5t-10.5 -24.5t-3.5 -39.5v-47h83v-68h-83v-450h-71v0z" />
    <glyph glyph-name="g" unicode="g" horiz-adv-x="456" 
d="M39 -42l70 -13q2 -21 9.5 -36.5t19.5 -25.5t29 -15t39 -5q24 0 43 5.5t32 17.5q14 11 24 27.5t15 39.5q3 13 4.5 41.5t1.5 71.5q-11 -16 -24.5 -29t-28.5 -21q-14 -9 -30.5 -12.5t-34.5 -3.5q-38 0 -69.5 15.5t-56.5 47.5q-29 37 -43.5 86.5t-14.5 112.5q0 41 6.5 78
t19.5 68t29.5 54t36.5 37q21 15 44.5 22.5t48.5 7.5q19 0 36 -4.5t33 -14.5q15 -9 29 -23t26 -32v63h66v-448q0 -60 -5 -102.5t-15 -67.5q-10 -26 -25.5 -46t-38.5 -34q-22 -15 -48.5 -22.5t-58.5 -7.5q-41 0 -72.5 11t-53.5 33t-33 53t-10 71v0zM99 268q0 -52 8.5 -89.5
t24.5 -60.5q17 -23 37.5 -35t45.5 -12q24 0 45 12t38 34q17 23 25.5 59.5t8.5 86.5q0 49 -9 85.5t-26 59.5q-18 24 -39 36t-47 12q-22 0 -41.5 -12t-36.5 -36q-17 -23 -25.5 -58.5t-8.5 -82.5v1z" />
    <glyph glyph-name="h" unicode="h" horiz-adv-x="456" 
d="M52 0v715h72v-257q13 17 27 30.5t30 22.5q17 9 34.5 13.5t36.5 4.5q34 0 61 -11t46 -32q20 -22 29.5 -61.5t9.5 -97.5v-327h-71v328q0 33 -6 57t-18 39q-12 14 -28.5 21.5t-37.5 7.5q-23 0 -43 -9t-37 -29q-16 -19 -24.5 -52t-8.5 -81v-282h-72v0z" />
    <glyph glyph-name="i" unicode="i" horiz-adv-x="182" 
d="M52 614v101h72v-101h-72v0zM52 0v518h72v-518h-72v0z" />
    <glyph glyph-name="j" unicode="j" horiz-adv-x="182" 
d="M52 613v102h72v-102h-72v0zM-39 -201l14 75q12 -3 19.5 -5t13.5 -2q11 0 19.5 4.5t13.5 13.5t8 31.5t3 57.5v544h72v-546q0 -53 -7 -89t-21 -55q-13 -19 -33 -28.5t-46 -9.5q-13 0 -27 2t-28 7h-1z" />
    <glyph glyph-name="k" unicode="k" horiz-adv-x="410" 
d="M54 0v715h72v-408l171 211h93l-162 -192l178 -326h-88l-141 265l-51 -60v-205h-72v0z" />
    <glyph glyph-name="l" unicode="l" horiz-adv-x="182" 
d="M50 0v715h72v-715h-72v0z" />
    <glyph glyph-name="m" unicode="m" horiz-adv-x="683" 
d="M53 0v518h65v-73q11 19 24.5 35t30.5 27t35.5 16.5t38.5 5.5q23 0 41.5 -6t33.5 -17q16 -12 27 -28.5t18 -39.5q13 23 27.5 40t30.5 28q17 11 35 17t38 6q31 0 55 -10.5t41 -31.5q18 -20 26.5 -53.5t8.5 -79.5v-354h-71v326q0 27 -2 47t-6 31t-11 20t-16 16q-9 6 -19 9.5
t-21 3.5q-23 0 -42 -9.5t-34 -27.5q-14 -19 -21.5 -47.5t-7.5 -68.5v-300h-72v336q0 31 -5 54t-15 36q-10 14 -23.5 20.5t-31.5 6.5q-24 0 -43.5 -10t-33.5 -30t-21.5 -56t-7.5 -89v-268h-72v0z" />
    <glyph glyph-name="n" unicode="n" horiz-adv-x="456" 
d="M52 0v518h65v-74q12 21 26.5 37t31.5 27t36 16t41 5q17 0 33 -3.5t31 -10.5q14 -7 26 -15.5t21 -19.5q8 -10 15 -24.5t11 -31.5q5 -17 7 -44t2 -63v-317h-72v315q0 28 -2.5 48.5t-7.5 33.5q-5 14 -12.5 24t-18.5 17q-10 8 -22 11.5t-26 3.5q-25 0 -46 -9.5t-36 -29.5
q-16 -19 -23.5 -52t-7.5 -80v-282h-72v0z" />
    <glyph glyph-name="o" unicode="o" horiz-adv-x="456" 
d="M25 259q0 66 14.5 116.5t42.5 84.5q28 35 64 52t79 17q42 0 78 -17t64 -52q29 -34 43 -83t14 -114q0 -70 -14 -121.5t-42 -86.5q-28 -34 -63.5 -50t-79.5 -16q-43 0 -78.5 16t-64.5 50q-28 35 -42.5 85.5t-14.5 117.5v1zM99 259q0 -51 9 -88.5t28 -62.5q18 -25 40.5 -37
t50.5 -12q25 0 46.5 12.5t40.5 37.5q18 25 27 62t9 87t-9 87t-28 62q-18 25 -40.5 37t-49.5 12q-26 0 -48 -12t-40 -37t-27 -62t-9 -87v1z" />
    <glyph glyph-name="p" unicode="p" horiz-adv-x="456" 
d="M52 -198v716h66v-67q12 20 25.5 35t28.5 24q15 10 32.5 14.5t36.5 4.5q25 0 48 -7.5t43 -22.5t36 -37.5t29 -53.5q12 -30 18 -66.5t6 -79.5q0 -66 -13.5 -117t-41.5 -87q-28 -35 -60 -52t-70 -17q-16 0 -32 4t-30 11q-14 8 -26.5 20t-23.5 28v-250h-72v0zM117 256
q0 -51 8.5 -88.5t25.5 -60.5q17 -24 37.5 -36t43.5 -12t43.5 12t37.5 37t26 63t9 90q0 50 -8.5 88t-25.5 62q-17 25 -37.5 37t-44.5 12q-22 0 -41.5 -13.5t-37.5 -39.5t-27 -64t-9 -88v1z" />
    <glyph glyph-name="q" unicode="q" horiz-adv-x="456" 
d="M323 -198v253q-8 -16 -20 -28t-27 -22q-8 -4 -15.5 -6.5t-15.5 -5.5q-8 -2 -15.5 -3t-15.5 -1q-37 0 -70 17t-61 53t-42 87t-14 117q0 57 11.5 104.5t35.5 85.5q23 38 56.5 57t76.5 19q20 0 37 -5t33 -15q15 -10 28.5 -25.5t24.5 -35.5v70h65v-716h-72v0zM101 260
q0 -51 8.5 -88.5t26.5 -62.5q17 -25 38 -37.5t46 -12.5q22 0 41 12t36 36q17 23 25.5 59t8.5 83q0 53 -9 93t-27 65q-17 26 -38.5 39t-45.5 13q-22 0 -41 -12t-36 -36q-16 -25 -24.5 -62.5t-8.5 -89.5v1z" />
    <glyph glyph-name="r" unicode="r" horiz-adv-x="272" 
d="M52 0v518h65v-79q13 27 24.5 45t21.5 27q11 9 22 13.5t24 4.5q18 0 36.5 -7.5t37.5 -21.5l-24 -80q-13 8 -26.5 13t-25.5 5t-22.5 -4t-19.5 -12q-10 -8 -16.5 -19.5t-10.5 -25.5q-7 -25 -10.5 -51.5t-3.5 -55.5v-270h-72v0z" />
    <glyph glyph-name="s" unicode="s" horiz-adv-x="410" 
d="M25 154l71 14q3 -29 12 -49t23 -33t33 -20t42 -7t41.5 6t31.5 17q13 12 19 26.5t6 32.5q0 15 -5.5 27t-16.5 21q-7 6 -25.5 13t-47.5 16q-42 13 -70 24t-42 20t-25 21t-19 28q-8 15 -12 32t-4 36q0 34 10.5 61t32.5 47q21 21 50.5 31.5t66.5 10.5q24 0 45 -4.5t39 -12.5
q17 -9 31 -20.5t23 -25.5q10 -14 16.5 -35t10.5 -48l-71 -10q-4 41 -27.5 62.5t-64.5 21.5q-23 0 -40.5 -5t-29.5 -14q-11 -10 -17 -22t-6 -26q0 -15 5.5 -26.5t16.5 -19.5q7 -5 26.5 -12.5t52.5 -18.5q44 -14 73 -25.5t42 -20.5q14 -8 24 -19.5t17 -26.5q8 -14 11.5 -31.5
t3.5 -37.5q0 -37 -12 -67t-35 -53q-24 -22 -56 -33t-73 -11q-76 0 -120.5 41t-56.5 124v1z" />
    <glyph glyph-name="t" unicode="t" 
d="M213 78l10 -78q-15 -3 -28.5 -4.5t-25.5 -1.5q-19 0 -34 3t-27 10q-11 7 -18.5 17t-12.5 23q-4 14 -6.5 39.5t-2.5 63.5v300h-52v68h52v128l72 53v-181h73v-68h-73v-304q0 -22 1.5 -35.5t4.5 -19.5q5 -9 13.5 -13t21.5 -4q6 0 14 1t18 2v1z" />
    <glyph glyph-name="u" unicode="u" horiz-adv-x="456" 
d="M331 0v76q-13 -23 -27.5 -39.5t-31.5 -27.5q-16 -10 -35 -15t-41 -5q-25 0 -46.5 6t-39.5 19q-17 14 -29 31t-18 37q-6 21 -9 49.5t-3 64.5v322h72v-288q0 -41 2 -67.5t6 -40.5q4 -13 11.5 -24t17.5 -19q11 -8 23.5 -12.5t26.5 -4.5q26 0 47.5 10.5t37.5 32.5
q14 18 21 51.5t7 82.5v279h72v-518h-64v0z" />
    <glyph glyph-name="v" unicode="v" horiz-adv-x="410" 
d="M171 0l-161 518h76l91 -310q8 -28 15 -54t13 -52q5 20 11 45t15 54l95 317h74l-161 -518h-68v0z" />
    <glyph glyph-name="w" unicode="w" horiz-adv-x="591" 
d="M130 0l-130 518h75l68 -299l24 -112l23 107l67 304h75l63 -301l21 -99l25 100l73 300h70l-133 -518h-75l-68 310l-16 88l-86 -398h-76v0z" />
    <glyph glyph-name="x" unicode="x" horiz-adv-x="410" 
d="M5 0l156 269l-144 249h90l65 -122q9 -17 16.5 -32l13.5 -27q9 17 17 31t15 26l72 124h86l-147 -244l158 -274h-88l-87 161l-23 43l-112 -204h-88v0z" />
    <glyph glyph-name="y" unicode="y" horiz-adv-x="410" 
d="M50 -199l-8 82q12 -4 22 -6t19 -2q12 0 21.5 2.5t16.5 7.5q8 4 14 11.5t11 17.5q2 3 8.5 24.5t19.5 61.5l-161 518h77l89 -300q8 -29 16 -59t15 -62q6 30 13 59.5t16 58.5l91 303h72l-161 -526q-16 -52 -28.5 -86t-21.5 -51q-10 -17 -20 -30t-22 -20q-11 -8 -24.5 -11.5
t-27.5 -3.5q-10 0 -22 3t-25 8v0z" />
    <glyph glyph-name="z" unicode="z" horiz-adv-x="410" 
d="M16 0v71l271 379q-24 -2 -44.5 -3t-37.5 -1l-173 1v71h347v-58l-230 -329l-45 -60q24 1 47 2t44 1l197 1v-75h-376v0z" />
    <glyph glyph-name="braceleft" unicode="{" horiz-adv-x="273" 
d="M22 298q14 0 25.5 4t21.5 13q10 8 16.5 20t10.5 28q5 17 7 47.5t2 75.5q0 44 1 73.5t2 44.5q3 24 9 43.5t16 35.5q7 11 16 19.5t20 13.5q12 5 27.5 8t34.5 3l23 1v-77h-13q-20 -1 -33.5 -5.5t-21.5 -13.5q-7 -9 -10.5 -29.5t-3.5 -52.5q0 -67 -1.5 -110t-4.5 -61
q-4 -25 -10 -43.5t-15 -31.5t-22 -24.5t-30 -22.5q21 -10 37 -27t26 -40q11 -22 15.5 -60.5t4.5 -91.5q0 -52 1 -83.5t3 -40.5q2 -14 6.5 -23t11.5 -14t18.5 -7.5t28.5 -2.5h13v-77h-23q-21 0 -36.5 3t-26.5 8q-10 5 -18.5 12.5t-15.5 17.5q-9 13 -15 29.5t-8 34.5
q-3 18 -4.5 52t-1.5 81q0 46 -2 77t-7 47q-4 16 -10.5 28t-16.5 20t-21.5 12.5t-25.5 5.5v80v0z" />
    <glyph glyph-name="bar" unicode="|" horiz-adv-x="212" 
d="M76 -210v938h63v-938h-63v0z" />
    <glyph glyph-name="braceright" unicode="}" horiz-adv-x="273" 
d="M250 298v-79q-14 -2 -26 -6.5t-22 -12.5q-9 -8 -16 -20t-11 -29q-4 -16 -6 -46.5t-3 -76.5q0 -43 -0.5 -71.5t-2.5 -43.5q-3 -23 -9 -43t-15 -36q-7 -12 -16.5 -20.5t-20.5 -13.5t-26.5 -7.5t-35.5 -2.5h-22v77h12q20 0 34 4.5t21 13.5t10.5 29.5t3.5 52.5
q0 67 1.5 109.5t4.5 61.5q5 24 11.5 43t16.5 33q9 14 21.5 25t28.5 18q-23 14 -39.5 31.5t-25.5 39.5q-10 22 -14.5 59.5t-4.5 89.5q0 54 -0.5 85.5t-2.5 40.5q-3 14 -7.5 23t-10.5 14q-7 5 -19 7.5t-29 2.5l-12 1v77h22q21 -1 37 -4t26 -8q11 -5 19 -12.5t15 -17.5
q9 -14 15 -30t9 -34q2 -19 3.5 -52.5t1.5 -83.5q1 -45 3 -75.5t6 -47.5q5 -16 11.5 -28.5t16.5 -20.5q9 -8 21 -12t26 -5v1z" />
    <glyph glyph-name="asciitilde" unicode="~" horiz-adv-x="479" 
d="M35 271v101q21 28 49 42.5t62 14.5q11 0 23.5 -2t25.5 -6q14 -4 32.5 -12.5t43.5 -21.5q23 -12 40 -17.5t30 -5.5q12 0 23.5 3t22.5 10q16 10 30 23.5t27 30.5v-103q-25 -29 -52.5 -43t-58.5 -14q-11 0 -22 2t-22 5t-27 10.5t-38 19.5q-27 14 -48 21.5t-37 7.5
q-12 0 -24 -3.5t-23 -9.5q-12 -7 -26 -20.5t-31 -33.5v1z" />
    <glyph glyph-name="exclamdown" unicode="&#xa1;" horiz-adv-x="272" 
d="M177 518v-100h-82v100h82v0zM159 340l22 -378v-159h-90v159l21 378h47v0z" />
    <glyph glyph-name="cent" unicode="&#xa2;" horiz-adv-x="456" 
d="M296 436l-89 -374q7 -3 13 -4t12 -1q20 0 37.5 8.5t33.5 25.5t25 41.5t13 55.5l72 -8q-7 -47 -23 -83t-41 -62q-25 -25 -54.5 -36.5t-62.5 -11.5q-10 0 -20 2t-21 5l-46 -193l-45 15l45 194q-22 13 -41 35t-34 53q-14 32 -21.5 71.5t-7.5 87.5q0 46 6 83t18 67
q13 30 30.5 52.5t39.5 38.5q22 15 46.5 23t50.5 8q7 0 16.5 -1t21.5 -3l45 190l44 -15l-45 -189q37 -20 59.5 -56.5t30.5 -89.5l-70 -12q-5 26 -14.5 47t-23.5 35v1zM253 458q-6 0 -11 0.5t-8 0.5q-25 0 -46.5 -12t-38.5 -36t-25.5 -61.5t-8.5 -88.5q0 -66 12.5 -109.5
t37.5 -66.5l88 373v0z" />
    <glyph glyph-name="sterling" unicode="&#xa3;" horiz-adv-x="456" 
d="M157 395h126v-73h-114q4 -11 6 -21.5t2 -21.5q0 -22 -4 -44.5t-13 -46.5q-8 -24 -21.5 -48t-32.5 -48q16 5 30.5 8t27.5 3q17 0 35 -3.5t39 -9.5q35 -10 58 -15t36 -5q14 0 33 7t43 21l24 -80q-30 -16 -54.5 -23t-42.5 -7q-8 0 -16.5 1t-17.5 3q-6 1 -19 5t-33 11
q-21 8 -35 12.5t-20 5.5q-9 2 -18 3.5t-17 1.5q-32 0 -62.5 -11t-59.5 -33l-28 83q21 13 38 32t29 44q13 25 19 53.5t6 61.5q0 14 -1.5 29t-4.5 31l-79 1v73h62q-10 42 -15.5 74t-5.5 53q0 47 13 84t39 65t58.5 42t71.5 14q35 0 64.5 -12t53.5 -36q24 -23 39 -57.5t20 -80.5
l-71 -12q-4 29 -13 52.5t-24 39.5q-15 17 -32.5 25t-37.5 8q-22 0 -40 -8t-33 -25q-16 -17 -23.5 -38.5t-7.5 -47.5q0 -28 5.5 -63t17.5 -78v1z" />
    <glyph glyph-name="currency" unicode="&#xa4;" horiz-adv-x="456" 
d="M83 469l-55 66l46 58l55 -68q11 8 22 15t23 11q12 5 25 7t26 2q14 0 26 -2t24 -7q12 -4 23 -11t21 -16l56 69l46 -58l-55 -66q14 -28 21 -57t7 -59q0 -31 -7 -59.5t-21 -55.5l55 -66l-46 -58l-56 69q-10 -10 -21 -16.5t-23 -11.5q-12 -4 -24 -6.5t-26 -2.5q-13 0 -26 2.5
t-25 6.5q-12 5 -23 11.5t-22 15.5l-55 -68l-46 58l55 67q-14 26 -21 54.5t-7 59.5q0 30 7 59t21 56v1zM120 354q0 -28 8 -51t23 -41q16 -18 34 -27t39 -9t39 9t34 27t23.5 41t7.5 50t-7.5 49.5t-23.5 40.5t-34 27t-39 9t-39 -9t-34 -27q-15 -18 -23 -40.5t-8 -49.5v1z" />
    <glyph glyph-name="yen" unicode="&#xa5;" horiz-adv-x="456" 
d="M189 0v158h-166v68h166v70h-166v72h137l-162 347h79l116 -252q10 -23 17.5 -42t13.5 -34q4 13 12 33t21 47l109 248h86l-162 -347h136v-72h-165v-70h165v-68h-165v-158h-72v0z" />
    <glyph glyph-name="brokenbar" unicode="&#xa6;" horiz-adv-x="212" 
d="M139 728v-386h-63v386h63v0zM139 175v-385h-63v385h63v0z" />
    <glyph glyph-name="section" unicode="&#xa7;" horiz-adv-x="456" 
d="M55 -34l73 13q6 -32 15 -54.5t22 -35.5q12 -12 28.5 -18.5t36.5 -6.5t35.5 6t27.5 19q12 12 18 27t6 33q0 7 -1.5 14t-3.5 14q-1 1 -1.5 3t-1.5 3q-2 5 -5 9.5t-6 7.5q-15 17 -48 45.5t-84 67.5q-37 28 -61.5 50t-35.5 38q-19 26 -28.5 54t-9.5 58q0 25 6 46t18 40
q13 19 29.5 32t36.5 20q-6 8 -12 15.5t-10 15.5q-5 7 -9.5 15t-7.5 15q-6 15 -9.5 30t-3.5 30q0 33 10.5 60.5t31.5 49.5q21 23 48 34t59 11q35 0 63 -11t50 -32t35 -52.5t17 -74.5l-75 -8q-4 29 -11.5 50t-18.5 32q-11 12 -25 17.5t-32 5.5q-17 0 -31.5 -5.5t-26.5 -17.5
q-11 -11 -17 -25t-6 -30q0 -3 0.5 -6.5t0.5 -7.5q1 -4 2 -7.5t2 -6.5q2 -3 3.5 -6.5t3.5 -7.5t4.5 -7.5t5.5 -6.5q11 -14 39.5 -38.5t75.5 -59.5q40 -30 66 -53t38 -38q18 -24 27 -50.5t9 -55.5q0 -27 -6.5 -49.5t-20.5 -41.5q-9 -13 -25 -25t-39 -24q16 -14 28 -30.5
t20 -33.5q8 -16 12 -34t4 -37q0 -35 -11.5 -64t-34.5 -51q-22 -23 -51 -34t-64 -11q-36 0 -65.5 11t-52.5 34q-23 22 -37 55t-19 76v0zM290 119q14 8 25 18.5t18 22.5q4 6 7 12t5 13q2 6 3 12t1 12q0 14 -5 28.5t-16 30.5q-10 15 -32.5 35.5t-57.5 46.5q-28 20 -48 37
t-34 30q-16 -11 -28 -22.5t-19 -22.5q-6 -11 -9.5 -23.5t-3.5 -25.5q0 -16 4.5 -30.5t14.5 -28.5q9 -14 30 -32.5t52 -41.5q27 -20 50.5 -38t42.5 -34v1z" />
    <glyph glyph-name="dieresis" unicode="&#xa8;" horiz-adv-x="272" 
d="M24 620v100h75v-100h-75v0zM173 620v100h76v-100h-76v0z" />
    <glyph glyph-name="copyright" unicode="&#xa9;" horiz-adv-x="604" 
d="M304 728q64 -1 118 -28.5t97 -83.5q44 -55 65.5 -119.5t21.5 -138.5q0 -52 -10.5 -99t-32.5 -91q-22 -43 -50 -76t-63 -56q-34 -23 -71 -33.5t-75 -10.5q-64 0 -118 26.5t-98 81.5q-43 55 -65 119.5t-22 138.5q0 52 11 99.5t32 90.5q22 43 50.5 76.5t62.5 55.5
q35 23 71.5 35t75.5 12v1zM304 666q-54 -1 -99.5 -25t-83.5 -71q-34 -45 -51.5 -97.5t-17.5 -114.5q0 -66 19.5 -122t59.5 -101q36 -42 79.5 -63t93.5 -21q53 0 99 23.5t83 71.5q35 44 52.5 97.5t17.5 114.5q0 66 -20 121.5t-59 101.5q-37 42 -80 63t-93 21v1zM401 299
l49 -17q-6 -32 -19 -57t-33 -43q-20 -17 -43.5 -26t-49.5 -9q-34 0 -62.5 13.5t-51.5 40.5q-22 27 -33.5 66t-11.5 90t11.5 89.5t33.5 65.5q22 26 51.5 39.5t65.5 13.5q26 0 47 -7.5t40 -22.5q18 -16 30 -37t19 -48l-48 -13q-6 17 -15 31t-21 23q-12 10 -25.5 14.5
t-28.5 4.5q-22 0 -41 -9.5t-35 -29.5q-15 -20 -22.5 -49.5t-7.5 -68.5q0 -37 7.5 -64.5t21.5 -46.5t32 -28.5t40 -9.5q17 0 33 6t30 19q14 12 23.5 29.5t13.5 39.5v1z" />
    <glyph glyph-name="ordfeminine" unicode="&#xaa;" horiz-adv-x="303" 
d="M221 416q-25 -27 -50.5 -40t-52.5 -13q-21 0 -38.5 7t-31.5 22q-14 14 -21 33.5t-7 43.5q0 21 4.5 37t14.5 29q10 12 23 20.5t30 12.5l85 18q14 2 24 5t14 4q0 20 -2.5 33.5t-7.5 20.5q-9 10 -22 15t-30 5q-30 0 -47 -15.5t-20 -45.5l-55 18q2 22 11.5 41t25.5 32
q16 14 37.5 21t48.5 7q31 0 53.5 -7.5t37.5 -21.5q14 -15 21 -37.5t7 -52.5v-116l-1 -29q0 -34 4 -56.5t13 -34.5l-60 1q-4 8 -6 19t-2 23v1zM214 539q-10 -5 -29.5 -9.5t-46.5 -9.5q-18 -3 -29 -7.5t-16 -9.5q-7 -7 -10 -15t-3 -19q0 -10 3.5 -18.5t10.5 -15.5
q8 -7 17 -10.5t20 -3.5q14 0 26.5 4.5t23.5 13.5t18.5 20.5t11.5 25.5q2 6 2.5 19t0.5 34v1z" />
    <glyph glyph-name="guillemotleft" unicode="&#xab;" horiz-adv-x="456" 
d="M134 257l104 -222h-59l-127 222l127 223h60l-105 -223v0zM289 257l106 -222h-61l-126 222l126 223h61l-106 -223v0z" />
    <glyph glyph-name="logicalnot" unicode="&#xac;" horiz-adv-x="479" 
d="M432 207h-68v213h-320v82h388v-295v0z" />
    <glyph glyph-name="sfthyphen" unicode="&#xad;" horiz-adv-x="272" 
d="M25 214v89h222v-89h-222v0z" />
    <glyph glyph-name="registered" unicode="&#xae;" horiz-adv-x="604" 
d="M304 728q64 -1 118 -28.5t97 -83.5q44 -55 65.5 -119.5t21.5 -138.5q0 -52 -10.5 -99t-32.5 -91q-22 -43 -50 -76t-63 -56q-34 -23 -71 -33.5t-75 -10.5q-64 0 -118 26.5t-98 81.5q-43 55 -65 119.5t-22 138.5q0 52 11 99.5t32 90.5q22 43 50.5 76.5t62.5 55.5
q35 23 71.5 35t75.5 12v1zM304 666q-54 -1 -99.5 -25t-83.5 -71q-34 -45 -51.5 -97.5t-17.5 -114.5q0 -66 19.5 -122t59.5 -101q36 -42 79.5 -63t93.5 -21q53 0 99 23.5t83 71.5q35 44 52.5 97.5t17.5 114.5q0 66 -20 121.5t-59 101.5q-37 42 -80 63t-93 21v1zM171 155v397
h112q29 -1 49.5 -4t32.5 -8t22.5 -14.5t18.5 -22.5t12 -28t4 -32q0 -22 -6.5 -41.5t-19.5 -35.5q-13 -15 -30 -23.5t-37 -10.5q9 -5 16 -11t13 -12q10 -13 22 -32t25 -45l39 -77h-64l-29 63q-16 35 -29.5 57.5t-23.5 32.5q-7 8 -18 11.5t-25 3.5l-31 1v-169h-53v0zM224 378
h64q21 -1 36 3.5t24 11.5q9 8 13.5 19t4.5 26q0 10 -2 18t-7 15q-4 8 -10 12.5t-13 7.5t-19.5 4.5t-31.5 1.5l-59 1v-120v0z" />
    <glyph glyph-name="overstore" unicode="&#xaf;" horiz-adv-x="500" 
d="M-5 840h510v-50h-510v50v0z" />
    <glyph glyph-name="glyph113" unicode="&#xb0;" horiz-adv-x="399" 
d="M62 592q0 28 10 52t30 43q20 20 43.5 30t51.5 10q29 0 53 -10t43 -30q20 -19 30 -43t10 -53q0 -28 -10 -52t-30 -44q-19 -19 -43 -29t-53 -10q-28 0 -51.5 10t-43.5 29q-20 20 -30 44t-10 52v1zM115 592q0 -18 6 -32.5t18 -26.5q13 -12 27.5 -18t31.5 -6t31 6t27 18
q12 12 18 26.5t6 31.5t-6 32t-18 27q-13 12 -27 18t-31 6t-31.5 -6t-27.5 -18q-12 -12 -18 -27t-6 -32v1z" />
    <glyph glyph-name="plusminus" unicode="&#xb1;" horiz-adv-x="548" 
d="M232 126v197h-194v82h194v195h83v-195h195v-82h-195v-197h-83v0zM510 0h-472v82h472v-82v0z" />
    <glyph glyph-name="twosuperior" unicode="&#xb2;" horiz-adv-x="272" 
d="M9 357q3 31 29 69t75 81q29 26 46.5 43t23.5 26q5 8 8 17t3 18q0 13 -3.5 23t-10.5 17q-7 8 -17.5 11t-23.5 3t-22.5 -2.5t-16.5 -8.5q-7 -5 -12 -16t-10 -28l-60 9q6 27 16.5 47t24.5 32q15 13 35 19t46 6q29 0 50.5 -6.5t36.5 -20.5q15 -13 22.5 -31.5t7.5 -41.5
q0 -21 -6.5 -40.5t-18.5 -37.5q-9 -13 -29 -33.5t-52 -48.5q-16 -15 -28 -27t-19 -21l155 1v-59h-250v0z" />
    <glyph glyph-name="threesuperior" unicode="&#xb3;" horiz-adv-x="272" 
d="M12 453l59 7q4 -16 10 -26.5t13 -16.5q8 -6 17.5 -9t20.5 -3q14 0 25 4.5t20 13.5t13.5 21t4.5 26q0 13 -3.5 22.5t-11.5 16.5q-7 8 -19 11t-29 3h-13h-9l9 54q14 -2 26 1.5t20 10.5t12 16t4 20q0 10 -3 18t-10 14q-6 6 -15 9t-20 3q-10 0 -19 -3t-16 -8q-6 -5 -11.5 -15
t-10.5 -24l-57 12q8 26 19 44t23 28q13 11 31 15.5t42 4.5q27 0 47.5 -6t34.5 -19q14 -12 21 -28.5t7 -37.5q0 -14 -3.5 -26t-11.5 -23q-7 -10 -17 -17t-24 -12q35 -10 52.5 -34t17.5 -60q0 -24 -8 -44t-25 -36t-39 -24t-49 -8q-54 0 -85 26t-40 78v1z" />
    <glyph glyph-name="acute" unicode="&#xb4;" horiz-adv-x="272" 
d="M88 583l54 136h94l-88 -136h-60v0z" />
    <glyph glyph-name="mu" unicode="&#xb5;" horiz-adv-x="576" 
d="M497 518v-518h-79v61q-13 -20 -25.5 -33.5t-24.5 -21.5q-18 -8 -37.5 -13t-42.5 -5q-20 0 -38 3.5t-34 10.5q-12 6 -24.5 18.5t-26.5 30.5v-249h-87v716h87v-220q0 -60 3 -99t9 -57q7 -17 17 -31t24 -25q15 -10 31 -15t35 -5q20 0 37 5.5t33 15.5q16 11 26.5 25t16.5 31
q7 17 10 55t3 98v222h87v0z" />
    <glyph glyph-name="paragraph" unicode="&#xb6;" horiz-adv-x="439" 
d="M164 -198v509q-36 1 -65 15.5t-52 40.5q-22 26 -33.5 61.5t-11.5 79.5q0 33 6 61t17 52q12 23 28.5 41t36.5 29q21 12 46 17.5t55 5.5l253 1v-84h-57v-829h-68v829h-89v-829h-66v0z" />
    <glyph glyph-name="middot" unicode="&#xb7;" horiz-adv-x="272" 
d="M199 311v100h82v-100h-82v0z" />
    <glyph glyph-name="cedilla" unicode="&#xb8;" horiz-adv-x="272" 
d="M86 -75l21 86h54l-14 -52q17 -2 29.5 -8t21.5 -16q9 -11 13.5 -23t4.5 -26q0 -19 -7.5 -35t-23.5 -29q-15 -14 -36 -20.5t-47 -6.5q-18 0 -33 1.5t-27 4.5l5 57q13 -1 22.5 -1.5t16.5 -0.5q17 0 29 2.5t19 7.5q8 5 11.5 12t3.5 15q0 7 -3.5 13t-10.5 10q-6 4 -18.5 6.5
t-30.5 2.5v0z" />
    <glyph glyph-name="onesuperior" unicode="&#xb9;" horiz-adv-x="272" 
d="M131 357v271q-21 -21 -43.5 -34.5t-46.5 -21.5v61q13 4 27 13t29 22t27.5 27t21.5 28l43 1v-367h-58v0z" />
    <glyph glyph-name="ordmasculine" unicode="&#xba;" horiz-adv-x="298" 
d="M149 728q28 -1 50.5 -12t40.5 -33q20 -26 30 -61t10 -79q0 -43 -10 -78.5t-30 -61.5q-17 -22 -39.5 -32.5t-51.5 -10.5q-28 0 -51.5 11.5t-42.5 35.5q-19 23 -28 57t-9 77q0 45 10 80.5t30 61.5q17 22 40 33t51 11v1zM149 663q-16 -1 -29 -8t-23 -21t-15 -37t-5 -55
q0 -31 5 -53t15 -36q11 -14 23.5 -21.5t28.5 -7.5t29 7.5t23 21.5t15 36.5t5 53.5t-5 53.5t-15 36.5t-23 21.5t-29 7.5v1z" />
    <glyph glyph-name="guillemotright" unicode="&#xbb;" horiz-adv-x="456" 
d="M315 257l-105 223h60l127 -223l-127 -222h-59l104 222v0zM160 257l-106 223h61l125 -223l-125 -222h-61l106 222v0z" />
    <glyph glyph-name="onequarter" unicode="&#xbc;" horiz-adv-x="684" 
d="M131 357v271q-21 -21 -43.5 -34.5t-46.5 -21.5v61q13 4 27 13t29 22t27.5 27t21.5 28l43 1v-367h-58v0zM100 -27l441 755h62l-440 -755h-63v0zM571 -15v75h-153v60l162 231h49v-239h41v-52h-41v-75h-58v0zM571 112v129l-92 -129h92v0z" />
    <glyph glyph-name="onehalf" unicode="&#xbd;" horiz-adv-x="684" 
d="M131 357v271q-21 -21 -43.5 -34.5t-46.5 -21.5v61q13 4 27 13t29 22t27.5 27t21.5 28l43 1v-367h-58v0zM90 -27l441 755h62l-440 -755h-63v0zM419 -15q3 31 28.5 68.5t74.5 80.5q30 26 47.5 43t23.5 26q5 8 8 17t3 18q0 13 -3.5 23t-11.5 17q-7 8 -17 11t-23 3
t-22.5 -2.5t-16.5 -8.5q-7 -5 -12 -16t-10 -28l-61 9q6 27 16.5 47t25.5 32q14 13 34.5 19t45.5 6q29 0 51 -6.5t37 -20.5q15 -13 22 -31.5t7 -41.5q0 -21 -6 -40.5t-18 -37.5q-9 -13 -29 -34t-52 -48q-16 -15 -28 -27t-19 -21l154 1v-58h-249v0z" />
    <glyph glyph-name="threequarters" unicode="&#xbe;" horiz-adv-x="684" 
d="M12 453l59 7q4 -16 10 -26.5t13 -16.5q8 -6 17.5 -9t20.5 -3q14 0 25 4.5t20 13.5t13.5 21t4.5 26q0 13 -3.5 22.5t-11.5 16.5q-7 8 -19 11t-29 3h-13h-9l9 54q14 -2 26 1.5t20 10.5t12 16t4 20q0 10 -3 18t-10 14q-6 6 -15 9t-20 3q-10 0 -19 -3t-16 -8q-6 -5 -11.5 -15
t-10.5 -24l-57 12q8 26 19 44t23 28q13 11 31 15.5t42 4.5q27 0 47.5 -6t34.5 -19q14 -12 21 -28.5t7 -37.5q0 -14 -3.5 -26t-11.5 -23q-7 -10 -17 -17t-24 -12q35 -10 52.5 -34t17.5 -60q0 -24 -8 -44t-25 -36t-39 -24t-49 -8q-54 0 -85 26t-40 78v1zM100 -27l441 755h62
l-440 -755h-63v0zM571 -15v75h-153v60l162 231h49v-239h41v-52h-41v-75h-58v0zM571 112v129l-92 -129h92v0z" />
    <glyph glyph-name="questiondown" unicode="&#xbf;" horiz-adv-x="500" 
d="M294 518v-100h-82v100h82v0zM290 342l1 -25q0 -37 -6 -66.5t-17 -52.5q-9 -18 -26.5 -41t-44.5 -52q-18 -19 -30 -35t-18 -28q-5 -12 -8 -24.5t-3 -25.5q0 -27 9 -49.5t25 -41.5q17 -19 37 -28.5t42 -9.5q23 0 42 9t35 26t26.5 44.5t14.5 63.5l74 -8q-5 -52 -20 -91
t-41 -64q-25 -26 -57.5 -39t-72.5 -13t-73.5 13.5t-60.5 41.5q-27 27 -40.5 62t-13.5 78q0 22 4.5 43.5t13.5 40.5q9 20 26.5 44t44.5 52q22 25 36 44t19 33q6 14 9 39t4 59l69 1v0z" />
    <glyph glyph-name="Agrave" unicode="&#xc0;" horiz-adv-x="546" 
d="M0 0l224 715h84l240 -715h-89l-68 216h-246l-64 -216h-81v0zM168 293h199l-61 199q-15 44 -25.5 81.5t-16.5 65.5q-6 -34 -13.5 -68.5t-18.5 -68.5l-64 -209v0zM323 764h-58l-93 137h97l54 -137v0z" />
    <glyph glyph-name="Aacute" unicode="&#xc1;" horiz-adv-x="546" 
d="M0 0l224 715h84l240 -715h-89l-68 216h-246l-64 -216h-81v0zM168 293h199l-61 199q-15 44 -25.5 81.5t-16.5 65.5q-6 -34 -13.5 -68.5t-18.5 -68.5l-64 -209v0zM226 764l53 137h94l-88 -137h-59v0z" />
    <glyph glyph-name="Acircumflex" unicode="&#xc2;" horiz-adv-x="546" 
d="M0 0l224 715h84l240 -715h-89l-68 216h-246l-64 -216h-81v0zM168 293h199l-61 199q-15 44 -25.5 81.5t-16.5 65.5q-6 -34 -13.5 -68.5t-18.5 -68.5l-64 -209v0zM274 847l-45 -83h-83l87 137h77l90 -137h-82l-44 83v0z" />
    <glyph glyph-name="Atilde" unicode="&#xc3;" horiz-adv-x="546" 
d="M0 0l224 715h84l240 -715h-89l-68 216h-246l-64 -216h-81v0zM168 293h199l-61 199q-15 44 -25.5 81.5t-16.5 65.5q-6 -34 -13.5 -68.5t-18.5 -68.5l-64 -209v0zM139 776q0 25 6 45.5t18 35.5q11 14 25.5 21.5t31.5 7.5q13 0 30 -6.5t38 -19.5q12 -7 21.5 -11t16.5 -4
q6 0 11 2.5t8 6.5q4 4 6.5 12.5t3.5 21.5l52 1q-1 -29 -6.5 -50t-16.5 -35q-11 -13 -25 -20.5t-31 -7.5q-12 0 -28.5 7t-37.5 21q-13 8 -23 12.5t-16 4.5q-7 0 -12 -3t-10 -8q-4 -6 -6.5 -15t-2.5 -20l-53 1v0z" />
    <glyph glyph-name="Adieresis" unicode="&#xc4;" horiz-adv-x="546" 
d="M0 0l224 715h84l240 -715h-89l-68 216h-246l-64 -216h-81v0zM168 293h199l-61 199q-15 44 -25.5 81.5t-16.5 65.5q-6 -34 -13.5 -68.5t-18.5 -68.5l-64 -209v0zM161 801v100h75v-100h-75v0zM310 801v100h75v-100h-75v0z" />
    <glyph glyph-name="Aring" unicode="&#xc5;" horiz-adv-x="546" 
d="M0 0l224 715h84l240 -715h-89l-68 216h-246l-64 -216h-81v0zM168 293h199l-61 199q-15 44 -25.5 81.5t-16.5 65.5q-6 -34 -13.5 -68.5t-18.5 -68.5l-64 -209v0zM202 834q0 17 5.5 32.5t15.5 28.5q11 13 24 19t27 6t26.5 -6t23.5 -19t16.5 -28.5t5.5 -35.5q0 -19 -5.5 -35
t-16.5 -29q-10 -13 -23 -19t-27 -6t-27 6t-24 19q-10 13 -15.5 29.5t-5.5 36.5v1zM232 833q0 -12 3.5 -22t9.5 -18q7 -7 14 -11t15 -4t15.5 4t14.5 11q7 8 10 17.5t3 21.5q0 11 -3 21t-10 17q-6 8 -13.5 11.5t-15.5 3.5q-9 0 -16 -3.5t-14 -11.5q-6 -7 -9.5 -17t-3.5 -21v1z
" />
    <glyph glyph-name="AE" unicode="&#xc6;" horiz-adv-x="819" 
d="M0 0l282 715h482v-84h-295v-220h274v-84h-274v-243h306v-84h-384v206h-227l-80 -206h-84v0zM197 290h194v341h-58l-136 -341v0z" />
    <glyph glyph-name="Ccedilla" unicode="&#xc7;" horiz-adv-x="591" 
d="M479 250l79 -23q-13 -62 -36 -107t-55 -74q-32 -30 -71.5 -44t-85.5 -14q-41 0 -76 9.5t-64 28.5q-28 20 -52 52t-43 76q-18 44 -27 96t-9 111t9 109.5t27 90.5q19 41 44 72t56 52q32 21 67 31.5t74 10.5q43 0 79 -13.5t67 -39.5q31 -27 52 -66t33 -90l-76 -21
q-19 73 -58.5 110.5t-98.5 37.5q-29 0 -54 -7.5t-47 -22.5t-39 -38t-30 -55q-13 -31 -19 -71.5t-6 -89.5q0 -73 13 -128t38 -92q26 -37 60.5 -55.5t77.5 -18.5q32 0 59.5 11.5t50.5 34.5t38.5 56.5t22.5 79.5v1zM249 -76l21 85h54l-14 -51q17 -2 29.5 -8.5t21.5 -16.5
t13.5 -22t4.5 -26q0 -20 -7.5 -36t-23.5 -29q-15 -14 -36 -20.5t-47 -6.5q-18 0 -32.5 1.5t-26.5 4.5l4 57h12t11 -1h9h8q16 0 28 2.5t19 7.5q8 5 11.5 11.5t3.5 14.5q0 7 -3 13t-10 11q-7 4 -19.5 6.5t-30.5 2.5v0z" />
    <glyph glyph-name="Egrave" unicode="&#xc8;" horiz-adv-x="546" 
d="M64 0v715h425v-84h-347v-219h325v-84h-325v-244h360v-84h-438v0zM322 764h-58l-92 137h97l53 -137v0z" />
    <glyph glyph-name="Eacute" unicode="&#xc9;" horiz-adv-x="546" 
d="M64 0v715h425v-84h-347v-219h325v-84h-325v-244h360v-84h-438v0zM226 764l53 137h94l-88 -137h-59v0z" />
    <glyph glyph-name="Ecircumflex" unicode="&#xca;" horiz-adv-x="546" 
d="M64 0v715h425v-84h-347v-219h325v-84h-325v-244h360v-84h-438v0zM274 847l-45 -83h-83l87 137h77l90 -137h-82l-44 83v0z" />
    <glyph glyph-name="Edieresis" unicode="&#xcb;" horiz-adv-x="546" 
d="M64 0v715h425v-84h-347v-219h325v-84h-325v-244h360v-84h-438v0zM161 801v100h75v-100h-75v0zM310 801v100h75v-100h-75v0z" />
    <glyph glyph-name="Igrave" unicode="&#xcc;" 
d="M78 0v715h77v-715h-77v0zM166 764h-59l-92 137h97l54 -137v0z" />
    <glyph glyph-name="Iacute" unicode="&#xcd;" 
d="M78 0v715h77v-715h-77v0zM69 764l53 137h94l-88 -137h-59v0z" />
    <glyph glyph-name="Icircumflex" unicode="&#xce;" 
d="M78 0v715h77v-715h-77v0zM117 847l-45 -83h-81l85 137h77l90 -137h-81l-45 83v0z" />
    <glyph glyph-name="Idieresis" unicode="&#xcf;" 
d="M78 0v715h77v-715h-77v0zM4 801v100h75v-100h-75v0zM153 801v100h76v-100h-76v0z" />
    <glyph glyph-name="Eth" unicode="&#xd0;" horiz-adv-x="591" 
d="M61 0v325h-63v65h63v325h203q38 -1 66.5 -4.5t47.5 -9.5q26 -8 48 -23.5t41 -38.5t33.5 -51.5t24.5 -63.5q11 -34 16 -75.5t5 -88.5q0 -52 -6 -97t-20 -83q-13 -39 -29 -67.5t-35 -48.5q-19 -19 -42.5 -33.5t-50.5 -22.5q-15 -4 -37.5 -6t-52.5 -2h-212v0zM139 84h125
q38 -1 66.5 5t47.5 19q20 12 35 31.5t25 46.5q14 37 21 80.5t7 93.5q0 56 -7.5 99t-21.5 74q-15 32 -34.5 52.5t-42.5 30.5q-16 7 -40.5 10.5t-57.5 3.5l-123 1v-241h162v-65h-162v-241v0z" />
    <glyph glyph-name="Ntilde" unicode="&#xd1;" horiz-adv-x="591" 
d="M61 0v715h79l309 -562v562h74v-715h-80l-308 562v-562h-74v0zM159 776q-1 25 5 45.5t18 35.5q12 14 26.5 21.5t31.5 7.5q12 0 29 -6.5t39 -19.5q11 -7 20.5 -11t16.5 -4t12 2.5t8 6.5t6 12.5t4 21.5l52 1q-1 -29 -7 -50t-17 -35q-11 -13 -24.5 -20.5t-30.5 -7.5
q-13 0 -29.5 7t-36.5 21q-13 8 -23 12.5t-16 4.5q-7 0 -12 -3t-10 -8q-4 -6 -6.5 -15t-2.5 -20l-53 1v0z" />
    <glyph glyph-name="Ograve" unicode="&#xd2;" horiz-adv-x="638" 
d="M41 348q0 91 20.5 161.5t60.5 119.5t90 73.5t110 24.5q39 0 74.5 -11t67.5 -33t57 -54t44 -74q19 -41 28.5 -91t9.5 -108q0 -79 -18.5 -144t-54.5 -115q-40 -55 -91.5 -82t-116.5 -27t-117.5 27.5t-91.5 84.5q-36 51 -54 112.5t-18 134.5v1zM121 347q0 -68 15 -119
t43 -88q29 -36 65 -54.5t77 -18.5q43 0 79 18.5t65 55.5t43 91t14 126q0 46 -7.5 87t-21.5 78q-12 28 -29 50.5t-40 38.5q-23 17 -48.5 25t-52.5 8q-44 0 -80 -18t-65 -55q-28 -37 -42.5 -93t-14.5 -133v1zM371 764h-58l-92 137h96l54 -137v0z" />
    <glyph glyph-name="Oacute" unicode="&#xd3;" horiz-adv-x="638" 
d="M41 348q0 91 20.5 161.5t60.5 119.5t90 73.5t110 24.5q39 0 74.5 -11t67.5 -33t57 -54t44 -74q19 -41 28.5 -91t9.5 -108q0 -79 -18.5 -144t-54.5 -115q-40 -55 -91.5 -82t-116.5 -27t-117.5 27.5t-91.5 84.5q-36 51 -54 112.5t-18 134.5v1zM121 347q0 -68 15 -119
t43 -88q29 -36 65 -54.5t77 -18.5q43 0 79 18.5t65 55.5t43 91t14 126q0 46 -7.5 87t-21.5 78q-12 28 -29 50.5t-40 38.5q-23 17 -48.5 25t-52.5 8q-44 0 -80 -18t-65 -55q-28 -37 -42.5 -93t-14.5 -133v1zM274 764l53 137h94l-88 -137h-59v0z" />
    <glyph glyph-name="Ocircumflex" unicode="&#xd4;" horiz-adv-x="638" 
d="M41 348q0 91 20.5 161.5t60.5 119.5t90 73.5t110 24.5q39 0 74.5 -11t67.5 -33t57 -54t44 -74q19 -41 28.5 -91t9.5 -108q0 -79 -18.5 -144t-54.5 -115q-40 -55 -91.5 -82t-116.5 -27t-117.5 27.5t-91.5 84.5q-36 51 -54 112.5t-18 134.5v1zM121 347q0 -68 15 -119
t43 -88q29 -36 65 -54.5t77 -18.5q43 0 79 18.5t65 55.5t43 91t14 126q0 46 -7.5 87t-21.5 78q-12 28 -29 50.5t-40 38.5q-23 17 -48.5 25t-52.5 8q-44 0 -80 -18t-65 -55q-28 -37 -42.5 -93t-14.5 -133v1zM322 847l-45 -83h-82l86 137h77l90 -137h-81l-45 83v0z" />
    <glyph glyph-name="Otilde" unicode="&#xd5;" horiz-adv-x="638" 
d="M41 348q0 91 20.5 161.5t60.5 119.5t90 73.5t110 24.5q39 0 74.5 -11t67.5 -33t57 -54t44 -74q19 -41 28.5 -91t9.5 -108q0 -79 -18.5 -144t-54.5 -115q-40 -55 -91.5 -82t-116.5 -27t-117.5 27.5t-91.5 84.5q-36 51 -54 112.5t-18 134.5v1zM121 347q0 -68 15 -119
t43 -88q29 -36 65 -54.5t77 -18.5q43 0 79 18.5t65 55.5t43 91t14 126q0 46 -7.5 87t-21.5 78q-12 28 -29 50.5t-40 38.5q-23 17 -48.5 25t-52.5 8q-44 0 -80 -18t-65 -55q-28 -37 -42.5 -93t-14.5 -133v1zM187 776q0 25 6 45.5t18 35.5q11 14 25.5 21.5t32.5 7.5
q12 0 29 -6.5t38 -19.5q12 -7 21.5 -11t16.5 -4t11.5 2.5t8.5 6.5q3 4 5.5 12.5t3.5 21.5l53 1q-1 -29 -7 -50t-17 -35q-11 -13 -25 -20.5t-31 -7.5q-12 0 -28.5 7t-36.5 21q-13 8 -23.5 12.5t-16.5 4.5t-11.5 -3t-9.5 -8q-4 -6 -6.5 -15t-2.5 -20l-54 1v0z" />
    <glyph glyph-name="Odieresis" unicode="&#xd6;" horiz-adv-x="638" 
d="M41 348q0 91 20.5 161.5t60.5 119.5t90 73.5t110 24.5q39 0 74.5 -11t67.5 -33t57 -54t44 -74q19 -41 28.5 -91t9.5 -108q0 -79 -18.5 -144t-54.5 -115q-40 -55 -91.5 -82t-116.5 -27t-117.5 27.5t-91.5 84.5q-36 51 -54 112.5t-18 134.5v1zM121 347q0 -68 15 -119
t43 -88q29 -36 65 -54.5t77 -18.5q43 0 79 18.5t65 55.5t43 91t14 126q0 46 -7.5 87t-21.5 78q-12 28 -29 50.5t-40 38.5q-23 17 -48.5 25t-52.5 8q-44 0 -80 -18t-65 -55q-28 -37 -42.5 -93t-14.5 -133v1zM209 801v100h76v-100h-76v0zM359 801v100h75v-100h-75v0z" />
    <glyph glyph-name="multiply" unicode="&#xd7;" horiz-adv-x="479" 
d="M63 199l126 154l-126 153l49 60l126 -153l125 152l49 -59l-126 -152l126 -154l-49 -59l-126 153l-126 -154l-48 59v0z" />
    <glyph glyph-name="Oslash" unicode="&#xd8;" horiz-adv-x="638" 
d="M502 650l67 92l40 -41l-71 -97q18 -34 30.5 -63.5t19.5 -56.5t10 -58.5t3 -68.5q0 -58 -9.5 -108.5t-28.5 -92.5t-44.5 -73.5t-57.5 -53.5q-32 -21 -67.5 -31t-74.5 -10q-25 0 -47.5 4t-42.5 11q-20 8 -42 22.5t-45 35.5l-68 -89l-39 40l70 96q-19 37 -32.5 68t-20.5 56
q-6 26 -9 56.5t-3 64.5q0 60 9.5 110.5t28.5 93.5t44.5 74.5t56.5 52.5q32 21 67.5 32t75.5 11q25 0 48 -4.5t43 -12.5q21 -9 43 -24t46 -37v1zM454 584q-19 18 -36 30t-31 19q-14 6 -30 9t-35 3q-44 0 -80 -18t-65 -55q-28 -36 -42.5 -90.5t-14.5 -126.5q0 -27 1.5 -50
t5.5 -42t11 -41t17 -47l299 409v0zM487 534l-298 -407q16 -17 31.5 -28t31.5 -18q15 -7 32 -10.5t35 -3.5q43 0 79 18.5t65 55.5t43 90t14 123q0 50 -8 95t-25 84v1z" />
    <glyph glyph-name="Ugrave" unicode="&#xd9;" horiz-adv-x="591" 
d="M446 715h78v-413q0 -53 -4.5 -95.5t-15.5 -76.5q-10 -33 -28.5 -59t-45.5 -46q-26 -19 -60.5 -28t-75.5 -9q-58 0 -101.5 16.5t-72.5 51.5q-28 35 -43 96t-15 149v414h78v-413q0 -50 4 -84.5t11 -56.5q8 -22 20.5 -38.5t29.5 -28.5q17 -11 38 -16.5t46 -5.5q41 0 71 11.5
t49 35.5q19 23 28 69t9 113v414v0zM342 764h-58l-92 137h97l53 -137v0z" />
    <glyph glyph-name="Uacute" unicode="&#xda;" horiz-adv-x="591" 
d="M446 715h78v-413q0 -53 -4.5 -95.5t-15.5 -76.5q-10 -33 -28.5 -59t-45.5 -46q-26 -19 -60.5 -28t-75.5 -9q-58 0 -101.5 16.5t-72.5 51.5q-28 35 -43 96t-15 149v414h78v-413q0 -50 4 -84.5t11 -56.5q8 -22 20.5 -38.5t29.5 -28.5q17 -11 38 -16.5t46 -5.5q41 0 71 11.5
t49 35.5q19 23 28 69t9 113v414v0zM245 764l53 137h95l-88 -137h-60v0z" />
    <glyph glyph-name="Ucircumflex" unicode="&#xdb;" horiz-adv-x="591" 
d="M446 715h78v-413q0 -53 -4.5 -95.5t-15.5 -76.5q-10 -33 -28.5 -59t-45.5 -46q-26 -19 -60.5 -28t-75.5 -9q-58 0 -101.5 16.5t-72.5 51.5q-28 35 -43 96t-15 149v414h78v-413q0 -50 4 -84.5t11 -56.5q8 -22 20.5 -38.5t29.5 -28.5q17 -11 38 -16.5t46 -5.5q41 0 71 11.5
t49 35.5q19 23 28 69t9 113v414v0zM293 847l-44 -83h-83l86 137h78l89 -137h-81l-45 83v0z" />
    <glyph glyph-name="Udieresis" unicode="&#xdc;" horiz-adv-x="591" 
d="M446 715h78v-413q0 -53 -4.5 -95.5t-15.5 -76.5q-10 -33 -28.5 -59t-45.5 -46q-26 -19 -60.5 -28t-75.5 -9q-58 0 -101.5 16.5t-72.5 51.5q-28 35 -43 96t-15 149v414h78v-413q0 -50 4 -84.5t11 -56.5q8 -22 20.5 -38.5t29.5 -28.5q17 -11 38 -16.5t46 -5.5q41 0 71 11.5
t49 35.5q19 23 28 69t9 113v414v0zM181 801v100h75v-100h-75v0zM330 801v100h75v-100h-75v0z" />
    <glyph glyph-name="Yacute" unicode="&#xdd;" horiz-adv-x="546" 
d="M228 0v303l-226 412h95l115 -215q17 -33 32 -63.5t28 -59.5q13 29 29 60.5t35 66.5l114 211h90l-234 -412v-303h-78v0zM226 764l53 137h94l-88 -137h-59v0z" />
    <glyph glyph-name="Thorn" unicode="&#xde;" horiz-adv-x="546" 
d="M63 0v715h78v-145h143q39 -1 68 -4.5t48 -10.5q26 -10 46 -27t35 -42t22.5 -56t7.5 -67q0 -48 -12 -87.5t-37 -70.5t-67.5 -46t-103.5 -15l-150 1v-145h-78v0zM141 229h151q36 -1 62.5 7.5t42.5 24.5q17 17 25.5 41t8.5 57q0 21 -4.5 39t-12.5 33t-18 25.5t-21 16.5
q-12 6 -33 8.5t-51 2.5l-150 1v-256v0z" />
    <glyph glyph-name="germandbls" unicode="&#xdf;" horiz-adv-x="500" 
d="M62 0v487q0 46 4.5 81t14.5 59q9 23 24 41.5t35 31.5q21 14 44.5 20.5t48.5 6.5q33 0 59.5 -10.5t47.5 -30.5t31 -45t10 -54q0 -12 -1.5 -24.5t-4.5 -25.5q-4 -13 -10 -30t-16 -37q-14 -30 -21 -50t-7 -31q0 -9 2.5 -18t8.5 -18q3 -7 15 -17.5t31 -25.5q31 -25 50.5 -45
t29.5 -37q9 -16 13.5 -35t4.5 -42q0 -36 -10.5 -65.5t-31.5 -52.5q-22 -23 -47.5 -34t-56.5 -11q-24 0 -45 7.5t-41 21.5q-19 16 -34 37.5t-25 49.5l62 36q17 -41 37.5 -61t43.5 -20q14 0 27.5 6t24.5 18q11 13 16.5 28t5.5 33q0 12 -2 22t-7 19q-4 8 -16 20t-32 28
q-31 26 -51.5 46.5t-29.5 34.5q-8 14 -12.5 29t-4.5 31v9.5t1 9.5t2 9.5t2 9.5q3 10 9 24.5t15 34.5q17 37 26 64t9 43t-6 29.5t-17 24.5t-25.5 16.5t-31.5 5.5q-23 0 -41 -8.5t-31 -26.5q-13 -17 -19 -51.5t-6 -85.5v-482h-72v0z" />
    <glyph glyph-name="agrave" unicode="&#xe0;" horiz-adv-x="456" 
d="M330 63q-19 -20 -37.5 -33.5t-38.5 -23.5q-19 -8 -39.5 -12.5t-41.5 -4.5q-33 0 -59.5 9t-46.5 29q-19 20 -29 47t-10 61q0 23 4.5 42.5t13.5 36.5q10 17 22.5 31t28.5 24q17 10 41 17t57 11q44 6 76 14t53 17v23q0 25 -5 44t-14 30q-13 15 -34 23t-48 8q-25 0 -44 -5
t-32 -16q-12 -10 -21 -29.5t-15 -48.5l-71 13q8 41 23.5 71.5t37.5 49.5q23 19 56 28.5t76 9.5q34 0 60 -6.5t45 -18.5q20 -13 32 -28.5t16 -34.5q5 -18 7.5 -45.5t2.5 -62.5v-116q0 -62 1.5 -101t3.5 -55t6.5 -31.5t11.5 -29.5h-75q-6 12 -9 27.5t-5 34.5v1zM324 260
q-20 -11 -49.5 -19.5t-68.5 -14.5q-22 -4 -38 -8.5t-25 -9.5t-16.5 -12t-12.5 -17q-4 -9 -7 -19.5t-3 -22.5q0 -19 6 -33.5t17 -25.5q12 -11 28 -16.5t36 -5.5t37 5t33 15t28 23.5t19 29.5q8 17 12 41.5t4 56.5v33v0zM272 583h-58l-92 136h97l53 -136v0z" />
    <glyph glyph-name="aacute" unicode="&#xe1;" horiz-adv-x="456" 
d="M330 63q-19 -20 -37.5 -33.5t-38.5 -23.5q-19 -8 -39.5 -12.5t-41.5 -4.5q-33 0 -59.5 9t-46.5 29q-19 20 -29 47t-10 61q0 23 4.5 42.5t13.5 36.5q10 17 22.5 31t28.5 24q17 10 41 17t57 11q44 6 76 14t53 17v23q0 25 -5 44t-14 30q-13 15 -34 23t-48 8q-25 0 -44 -5
t-32 -16q-12 -10 -21 -29.5t-15 -48.5l-71 13q8 41 23.5 71.5t37.5 49.5q23 19 56 28.5t76 9.5q34 0 60 -6.5t45 -18.5q20 -13 32 -28.5t16 -34.5q5 -18 7.5 -45.5t2.5 -62.5v-116q0 -62 1.5 -101t3.5 -55t6.5 -31.5t11.5 -29.5h-75q-6 12 -9 27.5t-5 34.5v1zM324 260
q-20 -11 -49.5 -19.5t-68.5 -14.5q-22 -4 -38 -8.5t-25 -9.5t-16.5 -12t-12.5 -17q-4 -9 -7 -19.5t-3 -22.5q0 -19 6 -33.5t17 -25.5q12 -11 28 -16.5t36 -5.5t37 5t33 15t28 23.5t19 29.5q8 17 12 41.5t4 56.5v33v0zM184 583l53 136h94l-88 -136h-59v0z" />
    <glyph glyph-name="acircumflex" unicode="&#xe2;" horiz-adv-x="456" 
d="M330 63q-19 -20 -37.5 -33.5t-38.5 -23.5q-19 -8 -39.5 -12.5t-41.5 -4.5q-33 0 -59.5 9t-46.5 29q-19 20 -29 47t-10 61q0 23 4.5 42.5t13.5 36.5q10 17 22.5 31t28.5 24q17 10 41 17t57 11q44 6 76 14t53 17v23q0 25 -5 44t-14 30q-13 15 -34 23t-48 8q-25 0 -44 -5
t-32 -16q-12 -10 -21 -29.5t-15 -48.5l-71 13q8 41 23.5 71.5t37.5 49.5q23 19 56 28.5t76 9.5q34 0 60 -6.5t45 -18.5q20 -13 32 -28.5t16 -34.5q5 -18 7.5 -45.5t2.5 -62.5v-116q0 -62 1.5 -101t3.5 -55t6.5 -31.5t11.5 -29.5h-75q-6 12 -9 27.5t-5 34.5v1zM324 260
q-20 -11 -49.5 -19.5t-68.5 -14.5q-22 -4 -38 -8.5t-25 -9.5t-16.5 -12t-12.5 -17q-4 -9 -7 -19.5t-3 -22.5q0 -19 6 -33.5t17 -25.5q12 -11 28 -16.5t36 -5.5t37 5t33 15t28 23.5t19 29.5q8 17 12 41.5t4 56.5v33v0zM225 666l-45 -83h-83l87 136h77l90 -136h-82l-44 83v0z
" />
    <glyph glyph-name="atilde" unicode="&#xe3;" horiz-adv-x="456" 
d="M330 63q-19 -20 -37.5 -33.5t-38.5 -23.5q-19 -8 -39.5 -12.5t-41.5 -4.5q-33 0 -59.5 9t-46.5 29q-19 20 -29 47t-10 61q0 23 4.5 42.5t13.5 36.5q10 17 22.5 31t28.5 24q17 10 41 17t57 11q44 6 76 14t53 17v23q0 25 -5 44t-14 30q-13 15 -34 23t-48 8q-25 0 -44 -5
t-32 -16q-12 -10 -21 -29.5t-15 -48.5l-71 13q8 41 23.5 71.5t37.5 49.5q23 19 56 28.5t76 9.5q34 0 60 -6.5t45 -18.5q20 -13 32 -28.5t16 -34.5q5 -18 7.5 -45.5t2.5 -62.5v-116q0 -62 1.5 -101t3.5 -55t6.5 -31.5t11.5 -29.5h-75q-6 12 -9 27.5t-5 34.5v1zM324 260
q-20 -11 -49.5 -19.5t-68.5 -14.5q-22 -4 -38 -8.5t-25 -9.5t-16.5 -12t-12.5 -17q-4 -9 -7 -19.5t-3 -22.5q0 -19 6 -33.5t17 -25.5q12 -11 28 -16.5t36 -5.5t37 5t33 15t28 23.5t19 29.5q8 17 12 41.5t4 56.5v33v0zM90 595q-1 25 5 45.5t18 35.5q12 14 26.5 21.5t31.5 7.5
q12 0 29 -6.5t39 -19.5q11 -7 20.5 -11t16.5 -4t12 2.5t8 6.5q4 4 6.5 12.5t3.5 21.5l52 1q-1 -29 -7 -50t-17 -35t-24.5 -21t-30.5 -7q-13 0 -29.5 7t-36.5 21q-13 8 -23 12.5t-16 4.5q-7 0 -12 -3t-10 -8q-4 -6 -6.5 -15t-2.5 -20l-53 1v0z" />
    <glyph glyph-name="adieresis" unicode="&#xe4;" horiz-adv-x="456" 
d="M330 63q-19 -20 -37.5 -33.5t-38.5 -23.5q-19 -8 -39.5 -12.5t-41.5 -4.5q-33 0 -59.5 9t-46.5 29q-19 20 -29 47t-10 61q0 23 4.5 42.5t13.5 36.5q10 17 22.5 31t28.5 24q17 10 41 17t57 11q44 6 76 14t53 17v23q0 25 -5 44t-14 30q-13 15 -34 23t-48 8q-25 0 -44 -5
t-32 -16q-12 -10 -21 -29.5t-15 -48.5l-71 13q8 41 23.5 71.5t37.5 49.5q23 19 56 28.5t76 9.5q34 0 60 -6.5t45 -18.5q20 -13 32 -28.5t16 -34.5q5 -18 7.5 -45.5t2.5 -62.5v-116q0 -62 1.5 -101t3.5 -55t6.5 -31.5t11.5 -29.5h-75q-6 12 -9 27.5t-5 34.5v1zM324 260
q-20 -11 -49.5 -19.5t-68.5 -14.5q-22 -4 -38 -8.5t-25 -9.5t-16.5 -12t-12.5 -17q-4 -9 -7 -19.5t-3 -22.5q0 -19 6 -33.5t17 -25.5q12 -11 28 -16.5t36 -5.5t37 5t33 15t28 23.5t19 29.5q8 17 12 41.5t4 56.5v33v0zM111 620v100h76v-100h-76v0zM261 620v100h75v-100h-75v0
z" />
    <glyph glyph-name="aring" unicode="&#xe5;" horiz-adv-x="456" 
d="M330 63q-19 -20 -37.5 -33.5t-38.5 -23.5q-19 -8 -39.5 -12.5t-41.5 -4.5q-33 0 -59.5 9t-46.5 29q-19 20 -29 47t-10 61q0 23 4.5 42.5t13.5 36.5q10 17 22.5 31t28.5 24q17 10 41 17t57 11q44 6 76 14t53 17v23q0 25 -5 44t-14 30q-13 15 -34 23t-48 8q-25 0 -44 -5
t-32 -16q-12 -10 -21 -29.5t-15 -48.5l-71 13q8 41 23.5 71.5t37.5 49.5q23 19 56 28.5t76 9.5q34 0 60 -6.5t45 -18.5q20 -13 32 -28.5t16 -34.5q5 -18 7.5 -45.5t2.5 -62.5v-116q0 -62 1.5 -101t3.5 -55t6.5 -31.5t11.5 -29.5h-75q-6 12 -9 27.5t-5 34.5v1zM324 260
q-20 -11 -49.5 -19.5t-68.5 -14.5q-22 -4 -38 -8.5t-25 -9.5t-16.5 -12t-12.5 -17q-4 -9 -7 -19.5t-3 -22.5q0 -19 6 -33.5t17 -25.5q12 -11 28 -16.5t36 -5.5t37 5t33 15t28 23.5t19 29.5q8 17 12 41.5t4 56.5v33v0zM152 653q0 17 5.5 32.5t16.5 28.5t23.5 19t26.5 6t27 -6
t23 -19q11 -13 16.5 -28.5t5.5 -35.5q0 -19 -5.5 -35.5t-16.5 -28.5q-10 -13 -23 -19t-27 -6t-26.5 6t-23.5 19t-16.5 29.5t-5.5 36.5v1zM183 652q0 -13 3 -22.5t9 -17.5q7 -7 14.5 -11t15.5 -4t15.5 4t13.5 11q7 8 10 17.5t3 20.5q0 12 -3 21.5t-10 16.5q-6 8 -13.5 12
t-15.5 4t-15.5 -4t-14.5 -12q-6 -7 -9 -16.5t-3 -20.5v1z" />
    <glyph glyph-name="ae" unicode="&#xe6;" horiz-adv-x="729" 
d="M692 158q-10 -43 -27 -75t-42 -53q-24 -22 -53.5 -31.5t-64.5 -9.5q-25 0 -46.5 5.5t-41.5 15.5q-19 11 -36.5 29.5t-33.5 43.5q-40 -48 -84.5 -71t-92.5 -23q-32 0 -58.5 9.5t-46.5 29.5q-19 21 -29.5 47.5t-10.5 59.5q0 22 5 42t15 38q11 17 24.5 31t29.5 23
q17 10 45.5 18t68.5 14q30 5 55 11t46 13l1 21q0 31 -5.5 52.5t-16.5 33.5q-10 12 -28 18t-44 6q-27 0 -46.5 -5t-31.5 -15q-13 -10 -22 -30.5t-14 -49.5l-70 12q8 43 23.5 73.5t37.5 49.5q23 19 54 28.5t71 9.5q29 0 52.5 -4.5t40.5 -13.5q18 -9 31 -22t21 -30
q26 35 60 52.5t76 17.5q28 0 52 -7.5t44 -21.5t37 -37t30 -55q14 -31 20.5 -67t6.5 -76l-1 -29h-307q1 -37 4.5 -63t10.5 -42t18 -28.5t26 -23.5q15 -10 31 -15t33 -5q20 0 37 7t31 21q15 14 25 34.5t15 47.5l75 -11v0zM386 309h234q-3 38 -12 66t-25 46q-16 17 -35.5 26
t-42.5 9q-25 0 -45 -9.5t-37 -28.5q-16 -19 -25.5 -46.5t-11.5 -63.5v1zM315 260q-16 -10 -48 -19t-80 -18q-22 -4 -37.5 -10t-23.5 -14q-12 -12 -18 -27.5t-6 -33.5t5.5 -33t16.5 -26t26 -17t34 -6q23 0 43.5 7t37.5 21t28.5 31.5t16.5 39.5q3 12 4 38t1 66v1z" />
    <glyph glyph-name="ccedilla" unicode="&#xe7;" horiz-adv-x="410" 
d="M331 189l71 -11q-6 -47 -21.5 -82.5t-39.5 -59.5q-25 -25 -54 -36t-64 -11q-42 0 -76.5 16t-61.5 50q-27 35 -40.5 85.5t-13.5 117.5q0 68 13.5 118.5t41.5 84.5q27 34 62 51t78 17q33 0 61 -10.5t50 -30.5q23 -21 37 -51.5t21 -71.5l-70 -12q-5 25 -14 44.5t-22 32.5
q-13 14 -28 20.5t-33 6.5q-26 0 -48.5 -12t-39.5 -36q-17 -23 -26 -60.5t-9 -88.5q0 -53 8.5 -91.5t24.5 -62.5q17 -23 38.5 -35t47.5 -12q20 0 38 8t32 24q15 16 24 40t13 57v1zM170 -71l21 85h54l-14 -51q17 -2 29.5 -8.5t21.5 -16.5t13.5 -22t4.5 -26q0 -20 -7.5 -36
t-23.5 -29q-15 -14 -36 -20.5t-47 -6.5q-18 0 -33 1.5t-27 4.5l5 57q13 -1 22.5 -1.5t16.5 -0.5q17 0 29 3t19 8q8 4 11.5 11t3.5 15q0 7 -3.5 13t-10.5 11q-6 4 -18.5 6t-30.5 3v0z" />
    <glyph glyph-name="egrave" unicode="&#xe8;" horiz-adv-x="456" 
d="M343 166l74 -11q-9 -42 -25.5 -73.5t-41.5 -52.5q-24 -21 -54 -30.5t-66 -9.5q-45 0 -81.5 16t-64.5 50q-28 35 -42 84.5t-14 113.5q0 68 14 119t42 86q29 35 64.5 53t78.5 18q41 0 75.5 -17.5t62.5 -52.5q28 -34 41.5 -84.5t13.5 -115.5l-1 -23h-317q2 -44 12 -77
t29 -56q18 -22 40 -33t47 -11q41 0 69 26.5t44 79.5v1zM106 309h238q-3 32 -10 57.5t-19 41.5q-18 24 -40 36.5t-48 12.5q-25 0 -45.5 -10.5t-37.5 -30.5t-26.5 -47t-11.5 -61v1zM272 583h-58l-92 136h97l53 -136v0z" />
    <glyph glyph-name="eacute" unicode="&#xe9;" horiz-adv-x="456" 
d="M343 166l74 -11q-9 -42 -25.5 -73.5t-41.5 -52.5q-24 -21 -54 -30.5t-66 -9.5q-45 0 -81.5 16t-64.5 50q-28 35 -42 84.5t-14 113.5q0 68 14 119t42 86q29 35 64.5 53t78.5 18q41 0 75.5 -17.5t62.5 -52.5q28 -34 41.5 -84.5t13.5 -115.5l-1 -23h-317q2 -44 12 -77
t29 -56q18 -22 40 -33t47 -11q41 0 69 26.5t44 79.5v1zM106 309h238q-3 32 -10 57.5t-19 41.5q-18 24 -40 36.5t-48 12.5q-25 0 -45.5 -10.5t-37.5 -30.5t-26.5 -47t-11.5 -61v1zM184 583l53 136h94l-88 -136h-59v0z" />
    <glyph glyph-name="ecircumflex" unicode="&#xea;" horiz-adv-x="456" 
d="M343 166l74 -11q-9 -42 -25.5 -73.5t-41.5 -52.5q-24 -21 -54 -30.5t-66 -9.5q-45 0 -81.5 16t-64.5 50q-28 35 -42 84.5t-14 113.5q0 68 14 119t42 86q29 35 64.5 53t78.5 18q41 0 75.5 -17.5t62.5 -52.5q28 -34 41.5 -84.5t13.5 -115.5l-1 -23h-317q2 -44 12 -77
t29 -56q18 -22 40 -33t47 -11q41 0 69 26.5t44 79.5v1zM106 309h238q-3 32 -10 57.5t-19 41.5q-18 24 -40 36.5t-48 12.5q-25 0 -45.5 -10.5t-37.5 -30.5t-26.5 -47t-11.5 -61v1zM225 666l-45 -83h-83l87 136h77l90 -136h-82l-44 83v0z" />
    <glyph glyph-name="edieresis" unicode="&#xeb;" horiz-adv-x="456" 
d="M343 166l74 -11q-9 -42 -25.5 -73.5t-41.5 -52.5q-24 -21 -54 -30.5t-66 -9.5q-45 0 -81.5 16t-64.5 50q-28 35 -42 84.5t-14 113.5q0 68 14 119t42 86q29 35 64.5 53t78.5 18q41 0 75.5 -17.5t62.5 -52.5q28 -34 41.5 -84.5t13.5 -115.5l-1 -23h-317q2 -44 12 -77
t29 -56q18 -22 40 -33t47 -11q41 0 69 26.5t44 79.5v1zM106 309h238q-3 32 -10 57.5t-19 41.5q-18 24 -40 36.5t-48 12.5q-25 0 -45.5 -10.5t-37.5 -30.5t-26.5 -47t-11.5 -61v1zM112 620v100h75v-100h-75v0zM261 620v100h75v-100h-75v0z" />
    <glyph glyph-name="igrave" unicode="&#xec;" 
d="M81 0v518h71v-518h-71v0zM165 583h-58l-92 136h96l54 -136v0z" />
    <glyph glyph-name="iacute" unicode="&#xed;" 
d="M81 0v518h71v-518h-71v0zM77 583l53 136h94l-88 -136h-59v0z" />
    <glyph glyph-name="icircumflex" unicode="&#xee;" 
d="M81 0v518h71v-518h-71v0zM117 666l-45 -83h-81l85 136h77l90 -136h-81l-45 83v0z" />
    <glyph glyph-name="idieresis" unicode="&#xef;" 
d="M81 0v518h71v-518h-71v0zM4 620v100h76v-100h-76v0zM154 620v100h75v-100h-75v0z" />
    <glyph glyph-name="eth" unicode="&#xf0;" horiz-adv-x="456" 
d="M122 715h86q14 -14 27 -26.5t23 -23.5l86 50l18 -49l-69 -41q64 -91 96 -183.5t32 -187.5q0 -64 -14 -113.5t-43 -84.5q-28 -34 -63 -51t-77 -17q-28 0 -53 7t-48 22q-22 15 -39.5 36.5t-30.5 49.5t-19.5 65t-6.5 82q0 65 13.5 115t39.5 84t58.5 51t69.5 17
q11 0 21.5 -1.5t19.5 -4.5t20 -8.5t24 -14.5q-12 29 -26 54.5t-31 49.5l-110 -61l-18 51l97 53q-19 21 -40 41t-43 38v1zM347 258q0 46 -9 81.5t-28 60.5q-18 25 -40.5 37.5t-48.5 12.5q-25 0 -47 -12.5t-39 -36.5q-17 -25 -25.5 -63t-8.5 -89q0 -49 9 -84.5t26 -59.5
q18 -23 40 -35t48 -12t47.5 12.5t39.5 37.5q18 26 27 63t9 86v1z" />
    <glyph glyph-name="ntilde" unicode="&#xf1;" horiz-adv-x="456" 
d="M52 0v518h65v-74q12 21 26.5 37t31.5 27t36 16t41 5q17 0 33 -3.5t31 -10.5q14 -7 26 -15.5t21 -19.5q8 -10 15 -24.5t11 -31.5q5 -17 7 -44t2 -63v-317h-72v315q0 28 -2.5 48.5t-7.5 33.5q-5 14 -12.5 24t-18.5 17q-10 8 -22 11.5t-26 3.5q-25 0 -46 -9.5t-36 -29.5
q-16 -19 -23.5 -52t-7.5 -80v-282h-72v0zM103 595q0 25 5.5 45.5t17.5 35.5q12 14 26.5 21.5t31.5 7.5q12 0 29 -6.5t39 -19.5q11 -7 21 -11t17 -4q6 0 11 2.5t8 6.5q4 4 6.5 12.5t3.5 21.5l52 1q-1 -29 -7 -50t-17 -35q-10 -14 -24 -21t-31 -7q-12 0 -28.5 7t-37.5 21
q-13 8 -23 12.5t-16 4.5q-7 0 -12 -3t-10 -8q-4 -6 -6.5 -15t-2.5 -20l-53 1v0z" />
    <glyph glyph-name="ograve" unicode="&#xf2;" horiz-adv-x="456" 
d="M25 259q0 66 14.5 116.5t42.5 84.5q28 35 64 52t79 17q42 0 78 -17t64 -52q29 -34 43 -83t14 -114q0 -70 -14 -121.5t-42 -86.5q-28 -34 -63.5 -50t-79.5 -16q-43 0 -78.5 16t-64.5 50q-28 35 -42.5 85.5t-14.5 117.5v1zM99 259q0 -51 9 -88.5t28 -62.5q18 -25 40.5 -37
t50.5 -12q25 0 46.5 12.5t40.5 37.5q18 25 27 62t9 87t-9 87t-28 62q-18 25 -40.5 37t-49.5 12q-26 0 -48 -12t-40 -37t-27 -62t-9 -87v1zM273 583h-58l-92 136h96l54 -136v0z" />
    <glyph glyph-name="oacute" unicode="&#xf3;" horiz-adv-x="456" 
d="M25 259q0 66 14.5 116.5t42.5 84.5q28 35 64 52t79 17q42 0 78 -17t64 -52q29 -34 43 -83t14 -114q0 -70 -14 -121.5t-42 -86.5q-28 -34 -63.5 -50t-79.5 -16q-43 0 -78.5 16t-64.5 50q-28 35 -42.5 85.5t-14.5 117.5v1zM99 259q0 -51 9 -88.5t28 -62.5q18 -25 40.5 -37
t50.5 -12q25 0 46.5 12.5t40.5 37.5q18 25 27 62t9 87t-9 87t-28 62q-18 25 -40.5 37t-49.5 12q-26 0 -48 -12t-40 -37t-27 -62t-9 -87v1zM185 583l53 136h94l-88 -136h-59v0z" />
    <glyph glyph-name="ocircumflex" unicode="&#xf4;" horiz-adv-x="456" 
d="M25 259q0 66 14.5 116.5t42.5 84.5q28 35 64 52t79 17q42 0 78 -17t64 -52q29 -34 43 -83t14 -114q0 -70 -14 -121.5t-42 -86.5q-28 -34 -63.5 -50t-79.5 -16q-43 0 -78.5 16t-64.5 50q-28 35 -42.5 85.5t-14.5 117.5v1zM99 259q0 -51 9 -88.5t28 -62.5q18 -25 40.5 -37
t50.5 -12q25 0 46.5 12.5t40.5 37.5q18 25 27 62t9 87t-9 87t-28 62q-18 25 -40.5 37t-49.5 12q-26 0 -48 -12t-40 -37t-27 -62t-9 -87v1zM226 666l-45 -83h-83l87 136h77l90 -136h-82l-44 83v0z" />
    <glyph glyph-name="otilde" unicode="&#xf5;" horiz-adv-x="456" 
d="M25 259q0 66 14.5 116.5t42.5 84.5q28 35 64 52t79 17q42 0 78 -17t64 -52q29 -34 43 -83t14 -114q0 -70 -14 -121.5t-42 -86.5q-28 -34 -63.5 -50t-79.5 -16q-43 0 -78.5 16t-64.5 50q-28 35 -42.5 85.5t-14.5 117.5v1zM99 259q0 -51 9 -88.5t28 -62.5q18 -25 40.5 -37
t50.5 -12q25 0 46.5 12.5t40.5 37.5q18 25 27 62t9 87t-9 87t-28 62q-18 25 -40.5 37t-49.5 12q-26 0 -48 -12t-40 -37t-27 -62t-9 -87v1zM90 595q0 25 6 45.5t18 35.5q11 14 25.5 21.5t31.5 7.5q13 0 30 -6.5t38 -19.5q12 -7 21.5 -11t16.5 -4t11.5 2.5t8.5 6.5
q3 4 5.5 12.5t3.5 21.5l52 1q-1 -29 -6.5 -50t-16.5 -35t-25 -21t-31 -7q-12 0 -28.5 7t-37.5 21q-13 8 -23 12.5t-16 4.5t-11.5 -3t-10.5 -8q-4 -6 -6 -15t-2 -20l-54 1v0z" />
    <glyph glyph-name="odieresis" unicode="&#xf6;" horiz-adv-x="456" 
d="M25 259q0 66 14.5 116.5t42.5 84.5q28 35 64 52t79 17q42 0 78 -17t64 -52q29 -34 43 -83t14 -114q0 -70 -14 -121.5t-42 -86.5q-28 -34 -63.5 -50t-79.5 -16q-43 0 -78.5 16t-64.5 50q-28 35 -42.5 85.5t-14.5 117.5v1zM99 259q0 -51 9 -88.5t28 -62.5q18 -25 40.5 -37
t50.5 -12q25 0 46.5 12.5t40.5 37.5q18 25 27 62t9 87t-9 87t-28 62q-18 25 -40.5 37t-49.5 12q-26 0 -48 -12t-40 -37t-27 -62t-9 -87v1zM112 620v100h75v-100h-75v0zM262 620v100h75v-100h-75v0z" />
    <glyph glyph-name="divide" unicode="&#xf7;" horiz-adv-x="548" 
d="M224 450v100h100v-100h-100v0zM510 312h-472v82h472v-82v0zM224 155v100h100v-100h-100v0z" />
    <glyph glyph-name="oslash" unicode="&#xf8;" horiz-adv-x="500" 
d="M371 487l40 63l38 -34l-43 -68q13 -23 22 -42.5t13 -37.5q6 -24 9 -51.5t3 -58.5q0 -67 -14 -118t-43 -85q-28 -34 -64.5 -50t-81.5 -16q-31 0 -58 9t-51 28l-42 -64l-38 35l43 67q-6 8 -11.5 17t-10.5 19q-4 9 -7.5 18t-5.5 18q-7 27 -10.5 55.5t-3.5 58.5q0 71 14 123
t42 86q28 35 63 52.5t78 17.5q16 0 30.5 -2.5t28.5 -7.5q14 -4 29 -12.5t31 -20.5v1zM331 423q-19 16 -38 24.5t-39 8.5q-26 0 -48 -12t-41 -37q-18 -25 -27.5 -61.5t-9.5 -85.5q0 -37 5.5 -68.5t15.5 -56.5l182 288v0zM360 375l-179 -284q15 -17 33 -24.5t37 -7.5
q28 0 50.5 12t41.5 37q18 25 27 62.5t9 88.5q0 18 -1 33t-3 27q-1 12 -5 25.5t-10 29.5v1z" />
    <glyph glyph-name="ugrave" unicode="&#xf9;" horiz-adv-x="456" 
d="M331 0v76q-13 -23 -27.5 -39.5t-31.5 -27.5q-16 -10 -35 -15t-41 -5q-25 0 -46.5 6t-39.5 19q-17 14 -29 31t-18 37q-6 21 -9 49.5t-3 64.5v322h72v-288q0 -41 2 -67.5t6 -40.5q4 -13 11.5 -24t17.5 -19q11 -8 23.5 -12.5t26.5 -4.5q26 0 47.5 10.5t37.5 32.5
q14 18 21 51.5t7 82.5v279h72v-518h-64v0zM271 583h-58l-92 136h97l53 -136v0z" />
    <glyph glyph-name="uacute" unicode="&#xfa;" horiz-adv-x="456" 
d="M331 0v76q-13 -23 -27.5 -39.5t-31.5 -27.5q-16 -10 -35 -15t-41 -5q-25 0 -46.5 6t-39.5 19q-17 14 -29 31t-18 37q-6 21 -9 49.5t-3 64.5v322h72v-288q0 -41 2 -67.5t6 -40.5q4 -13 11.5 -24t17.5 -19q11 -8 23.5 -12.5t26.5 -4.5q26 0 47.5 10.5t37.5 32.5
q14 18 21 51.5t7 82.5v279h72v-518h-64v0zM183 583l53 136h95l-88 -136h-60v0z" />
    <glyph glyph-name="ucircumflex" unicode="&#xfb;" horiz-adv-x="456" 
d="M331 0v76q-13 -23 -27.5 -39.5t-31.5 -27.5q-16 -10 -35 -15t-41 -5q-25 0 -46.5 6t-39.5 19q-17 14 -29 31t-18 37q-6 21 -9 49.5t-3 64.5v322h72v-288q0 -41 2 -67.5t6 -40.5q4 -13 11.5 -24t17.5 -19q11 -8 23.5 -12.5t26.5 -4.5q26 0 47.5 10.5t37.5 32.5
q14 18 21 51.5t7 82.5v279h72v-518h-64v0zM224 666l-45 -83h-83l87 136h77l90 -136h-82l-44 83v0z" />
    <glyph glyph-name="udieresis" unicode="&#xfc;" horiz-adv-x="456" 
d="M331 0v76q-13 -23 -27.5 -39.5t-31.5 -27.5q-16 -10 -35 -15t-41 -5q-25 0 -46.5 6t-39.5 19q-17 14 -29 31t-18 37q-6 21 -9 49.5t-3 64.5v322h72v-288q0 -41 2 -67.5t6 -40.5q4 -13 11.5 -24t17.5 -19q11 -8 23.5 -12.5t26.5 -4.5q26 0 47.5 10.5t37.5 32.5
q14 18 21 51.5t7 82.5v279h72v-518h-64v0zM111 620v100h75v-100h-75v0zM260 620v100h75v-100h-75v0z" />
    <glyph glyph-name="yacute" unicode="&#xfd;" horiz-adv-x="410" 
d="M50 -199l-8 82q12 -4 22 -6t19 -2q12 0 21.5 2.5t16.5 7.5q8 4 14 11.5t11 17.5q2 3 8.5 24.5t19.5 61.5l-161 518h77l89 -300q8 -29 16 -59t15 -62q6 30 13 59.5t16 58.5l91 303h72l-161 -526q-16 -52 -28.5 -86t-21.5 -51q-10 -17 -20 -30t-22 -20q-11 -8 -24.5 -11.5
t-27.5 -3.5q-10 0 -22 3t-25 8v0zM167 583l54 136h94l-88 -136h-60v0z" />
    <glyph glyph-name="thorn" unicode="&#xfe;" horiz-adv-x="456" 
d="M52 -198v913h72v-252q15 19 29 32t27 20q14 7 29 10.5t32 3.5q25 0 48 -7.5t43 -22.5t36 -37.5t29 -53.5q12 -30 18 -66.5t6 -79.5q0 -66 -13.5 -117t-41.5 -86q-28 -36 -60 -53t-70 -17q-16 0 -30 3t-27 8q-13 8 -26.5 20.5t-28.5 31.5v-250h-72v0zM117 256
q0 -51 8.5 -88.5t25.5 -60.5q17 -24 37.5 -36t43.5 -12t43.5 12t37.5 37t26 63t9 90q0 50 -8.5 88t-25.5 62q-17 25 -37.5 37t-44.5 12q-22 0 -41.5 -13.5t-37.5 -39.5t-27 -64t-9 -88v1z" />
    <glyph glyph-name="ydieresis" unicode="&#xff;" horiz-adv-x="410" 
d="M50 -199l-8 82q12 -4 22 -6t19 -2q12 0 21.5 2.5t16.5 7.5q8 4 14 11.5t11 17.5q2 3 8.5 24.5t19.5 61.5l-161 518h77l89 -300q8 -29 16 -59t15 -62q6 30 13 59.5t16 58.5l91 303h72l-161 -526q-16 -52 -28.5 -86t-21.5 -51q-10 -17 -20 -30t-22 -20q-11 -8 -24.5 -11.5
t-27.5 -3.5q-10 0 -22 3t-25 8v0zM97 620v100h75v-100h-75v0zM246 620v100h75v-100h-75v0z" />
    <glyph glyph-name="Abreve" unicode="&#x102;" 
 />
    <glyph glyph-name="abreve" unicode="&#x103;" 
 />
    <glyph glyph-name="Aogonek" unicode="&#x104;" 
 />
    <glyph glyph-name="aogonek" unicode="&#x105;" 
 />
    <glyph glyph-name="Cacute" unicode="&#x106;" 
 />
    <glyph glyph-name="cacute" unicode="&#x107;" 
 />
    <glyph glyph-name="Ccaron" unicode="&#x10c;" 
 />
    <glyph glyph-name="ccaron" unicode="&#x10d;" 
 />
    <glyph glyph-name="Dcaron" unicode="&#x10e;" 
 />
    <glyph glyph-name="dcaron" unicode="&#x10f;" 
 />
    <glyph glyph-name="Dslash" unicode="&#x110;" 
 />
    <glyph glyph-name="dslash" unicode="&#x111;" 
 />
    <glyph glyph-name="Eogonek" unicode="&#x118;" 
 />
    <glyph glyph-name="eogonek" unicode="&#x119;" 
 />
    <glyph glyph-name="Ecaron" unicode="&#x11a;" 
 />
    <glyph glyph-name="ecaron" unicode="&#x11b;" 
 />
    <glyph glyph-name="Gbreve" unicode="&#x11e;" 
 />
    <glyph glyph-name="gbreve" unicode="&#x11f;" 
 />
    <glyph glyph-name="Idot" unicode="&#x130;" 
 />
    <glyph glyph-name="dotlessi" unicode="&#x131;" 
d="M81 0v518h71v-518h-71v0z" />
    <glyph glyph-name="Lacute" unicode="&#x139;" 
 />
    <glyph glyph-name="lacute" unicode="&#x13a;" 
 />
    <glyph glyph-name="Lcaron" unicode="&#x13d;" 
 />
    <glyph glyph-name="lcaron" unicode="&#x13e;" 
 />
    <glyph glyph-name="Ldot" unicode="&#x13f;" 
 />
    <glyph glyph-name="ldot" unicode="&#x140;" 
 />
    <glyph glyph-name="Lslash" unicode="&#x141;" 
 />
    <glyph glyph-name="lslash" unicode="&#x142;" 
 />
    <glyph glyph-name="Nacute" unicode="&#x143;" 
 />
    <glyph glyph-name="nacute" unicode="&#x144;" 
 />
    <glyph glyph-name="Ncaron" unicode="&#x147;" 
 />
    <glyph glyph-name="ncaron" unicode="&#x148;" 
 />
    <glyph glyph-name="Odblacute" unicode="&#x150;" 
 />
    <glyph glyph-name="odblacute" unicode="&#x151;" 
 />
    <glyph glyph-name="OE" unicode="&#x152;" horiz-adv-x="819" 
d="M793 84v-84h-345v103q-13 -29 -29.5 -51t-36.5 -37q-20 -13 -43.5 -20t-49.5 -7q-52 0 -93 20t-71 62q-37 50 -55.5 122t-18.5 166q0 62 8.5 114.5t24.5 95.5q17 42 37.5 72.5t45.5 49.5q26 18 56.5 27.5t65.5 9.5q26 0 49.5 -7t43.5 -21q20 -13 36.5 -33.5t29.5 -47.5
v97h333v-84h-260v-219h240v-84h-240v-244h272v0zM288 651q-32 -1 -60 -18t-51 -52q-22 -34 -34 -90.5t-12 -134.5q0 -77 12 -133t35 -91q23 -34 51 -52t61 -18q31 0 58 18t50 52q23 35 34.5 91t11.5 133t-11.5 133.5t-34.5 90.5q-23 35 -50.5 52.5t-59.5 17.5v1z" />
    <glyph glyph-name="oe" unicode="&#x153;" horiz-adv-x="773" 
d="M393 85q-16 -25 -33.5 -43.5t-37.5 -30.5q-19 -11 -41.5 -16.5t-47.5 -5.5q-43 0 -78.5 16t-64.5 50q-28 35 -42 84t-14 113q0 47 6.5 85t19.5 69t31 54t40 38q23 16 49 23.5t55 7.5q26 0 50 -6.5t45 -20.5q21 -13 37 -31t26 -41q13 24 30 42t37 31t42 19.5t46 6.5
q43 0 78.5 -18t63.5 -55q28 -36 41.5 -91.5t12.5 -130.5l-313 1q1 -42 10 -74.5t28 -55.5q18 -23 40.5 -34.5t47.5 -11.5q20 0 36.5 7t31.5 20q15 14 25.5 34t16.5 47l72 -11q-9 -43 -25.5 -74.5t-40.5 -52.5t-53.5 -30.5t-64.5 -9.5q-26 0 -49.5 5.5t-45.5 17.5
q-21 13 -38 31t-29 41v1zM107 260q0 -48 8 -84t24 -60q18 -28 42 -42.5t53 -14.5q25 0 46.5 13t39.5 39q19 26 28 63t9 86t-9 85.5t-28 61.5q-18 25 -40.5 37.5t-49.5 12.5q-28 0 -50 -14t-39 -42q-16 -27 -25 -62.5t-9 -79.5v1zM433 308h235q-2 37 -11 64.5t-26 46.5
q-16 19 -35.5 28.5t-42.5 9.5q-24 0 -44 -10t-37 -30q-17 -19 -27 -47t-12 -63v1z" />
    <glyph glyph-name="Racute" unicode="&#x154;" 
 />
    <glyph glyph-name="racute" unicode="&#x155;" 
 />
    <glyph glyph-name="Rcaron" unicode="&#x158;" 
 />
    <glyph glyph-name="rcaron" unicode="&#x159;" 
 />
    <glyph glyph-name="Sacute" unicode="&#x15a;" 
 />
    <glyph glyph-name="sacute" unicode="&#x15b;" 
 />
    <glyph glyph-name="Scedilla" unicode="&#x15e;" 
 />
    <glyph glyph-name="scedilla" unicode="&#x15f;" 
 />
    <glyph glyph-name="Scaron" unicode="&#x160;" horiz-adv-x="546" 
d="M37 229l73 8q3 -30 9.5 -53t16.5 -40q11 -16 26 -29t34 -24q20 -10 41 -15t46 -5q35 0 61.5 9t45.5 25q20 17 29.5 39t9.5 49q0 16 -3.5 30t-10.5 26t-17.5 21.5t-24.5 17.5t-44.5 18.5t-77.5 23.5q-21 6 -38.5 12t-32.5 13q-14 6 -26 12t-21 12q-17 13 -30.5 29
t-23.5 35t-15 40.5t-5 45.5q0 44 14 79.5t42 62.5q29 28 66.5 42t85.5 14q32 0 60.5 -6.5t53.5 -19.5t44 -31.5t32 -43.5q14 -24 21 -52.5t8 -60.5l-74 -6q-3 34 -13.5 60t-28.5 42q-18 17 -43.5 25.5t-57.5 8.5q-33 0 -58 -7.5t-43 -22.5q-17 -14 -25.5 -33.5t-8.5 -42.5
q0 -22 6 -38.5t19 -28.5q6 -6 16.5 -12t24.5 -12q15 -7 33 -13t40 -12q44 -12 74 -22.5t48 -18.5q27 -13 47.5 -31t34.5 -41q14 -22 20.5 -49t6.5 -58t-7.5 -58.5t-21.5 -53.5q-14 -25 -33.5 -44t-44.5 -33q-25 -12 -55 -18t-65 -6q-54 0 -97.5 15.5t-75.5 47.5
q-32 33 -49 77.5t-18 99.5v1zM280 818l45 83h81l-90 -137h-77l-86 137h82l45 -83v0z" />
    <glyph glyph-name="scaron" unicode="&#x161;" horiz-adv-x="410" 
d="M25 154l71 14q3 -29 12 -49t23 -33t33 -20t42 -7t41.5 6t31.5 17q13 12 19 26.5t6 32.5q0 15 -5.5 27t-16.5 21q-7 6 -25.5 13t-47.5 16q-42 13 -70 24t-42 20t-25 21t-19 28q-8 15 -12 32t-4 36q0 34 10.5 61t32.5 47q21 21 50.5 31.5t66.5 10.5q24 0 45 -4.5t39 -12.5
q17 -9 31 -20.5t23 -25.5q10 -14 16.5 -35t10.5 -48l-71 -10q-4 41 -27.5 62.5t-64.5 21.5q-23 0 -40.5 -5t-29.5 -14q-11 -10 -17 -22t-6 -26q0 -15 5.5 -26.5t16.5 -19.5q7 -5 26.5 -12.5t52.5 -18.5q44 -14 73 -25.5t42 -20.5q14 -8 24 -19.5t17 -26.5q8 -14 11.5 -31.5
t3.5 -37.5q0 -37 -12 -67t-35 -53q-24 -22 -56 -33t-73 -11q-76 0 -120.5 41t-56.5 124v1zM202 636l45 83h81l-90 -136h-77l-86 136h82l45 -83v0z" />
    <glyph glyph-name="Tcedilla" unicode="&#x162;" 
 />
    <glyph glyph-name="tcedilla" unicode="&#x163;" 
 />
    <glyph glyph-name="Tcaron" unicode="&#x164;" 
 />
    <glyph glyph-name="tcaron" unicode="&#x165;" 
 />
    <glyph glyph-name="Uring" unicode="&#x16e;" 
 />
    <glyph glyph-name="uring" unicode="&#x16f;" 
 />
    <glyph glyph-name="udblacute" unicode="&#x170;" 
 />
    <glyph glyph-name="Udblacute" unicode="&#x171;" 
 />
    <glyph glyph-name="Ydieresis" unicode="&#x178;" horiz-adv-x="546" 
d="M228 0v303l-226 412h95l115 -215q17 -33 32 -63.5t28 -59.5q13 29 29 60.5t35 66.5l114 211h90l-234 -412v-303h-78v0zM161 801v100h75v-100h-75v0zM310 801v100h75v-100h-75v0z" />
    <glyph glyph-name="Zacute" unicode="&#x179;" 
 />
    <glyph glyph-name="zacute" unicode="&#x17a;" 
 />
    <glyph glyph-name="Zdot" unicode="&#x17b;" 
 />
    <glyph glyph-name="zdot" unicode="&#x17c;" 
 />
    <glyph glyph-name="Zcaron" unicode="&#x17d;" 
 />
    <glyph glyph-name="zcaron" unicode="&#x17e;" 
 />
    <glyph glyph-name="florin" unicode="&#x192;" horiz-adv-x="456" 
d="M17 -197l13 75q20 -5 35.5 -7.5t25.5 -2.5q11 0 19.5 3t14.5 10q5 7 9.5 22.5t8.5 38.5l70 508h-80l10 68h80l10 65q5 32 10.5 55t12.5 36t16 23t20 17t25 10t30 3q15 0 36.5 -5t49.5 -14l-15 -73q-21 4 -36 7t-25 3q-11 0 -19.5 -3t-14.5 -10q-5 -7 -9.5 -23t-8.5 -42
l-8 -49h81l-9 -68h-82l-77 -533q-5 -36 -14 -61.5t-21 -38.5q-12 -14 -29 -20.5t-40 -6.5q-19 0 -41 3.5t-48 9.5v0z" />
    <glyph glyph-name="hungarumlaut" unicode="&#x2ba;" 
 />
    <glyph glyph-name="tilde" unicode="&#x2c6;" horiz-adv-x="272" 
d="M137 666l-45 -83h-83l87 136h77l90 -136h-82l-44 83v0z" />
    <glyph glyph-name="caron" unicode="&#x2c7;" horiz-adv-x="272" 
d="M143 636l44 83h82l-90 -136h-77l-86 136h82l45 -83v0z" />
    <glyph glyph-name="macron" unicode="&#x2c9;" 
 />
    <glyph glyph-name="breve" unicode="&#x2d8;" 
 />
    <glyph glyph-name="dotaccent" unicode="&#x2d9;" 
 />
    <glyph glyph-name="ring" unicode="&#x2da;" horiz-adv-x="272" 
d="M64 653q0 17 6 32.5t16 28.5q11 13 24 19t27 6t26.5 -6t23.5 -19t16 -28.5t5 -35.5q0 -19 -5 -35.5t-16 -28.5q-10 -13 -23 -19t-27 -6t-27 6t-24 19q-10 13 -16 29.5t-6 36.5v1zM95 652q0 -13 3 -22.5t10 -17.5q6 -7 13.5 -11t15.5 -4t15.5 4t14.5 11q6 8 9.5 17.5
t3.5 20.5q0 12 -3.5 21.5t-9.5 16.5q-6 8 -13.5 12t-15.5 4q-9 0 -16.5 -4t-13.5 -12q-7 -7 -10 -16.5t-3 -20.5v1z" />
    <glyph glyph-name="ogonek" unicode="&#x2db;" 
 />
    <glyph glyph-name="circumflex" unicode="&#x2dc;" horiz-adv-x="272" 
d="M2 595q0 25 6 45.5t18 35.5q11 14 25.5 21.5t31.5 7.5q13 0 30 -6.5t38 -19.5q12 -7 21.5 -11t16.5 -4t11.5 2.5t8.5 6.5q3 4 5.5 12.5t3.5 21.5l52 1q0 -29 -6 -50t-17 -35t-25 -21t-31 -7q-12 0 -28.5 7t-37.5 21q-13 8 -23 12.5t-16 4.5t-11.5 -3t-10.5 -8
q-4 -6 -6 -15t-2 -20l-54 1v0z" />
    <glyph glyph-name="Gamma" unicode="&#x393;" 
 />
    <glyph glyph-name="Theta" unicode="&#x398;" 
 />
    <glyph glyph-name="summation" unicode="&#x3a3;" 
 />
    <glyph glyph-name="Phi" unicode="&#x3a6;" 
 />
    <glyph glyph-name="Omega" unicode="&#x3a9;" 
 />
    <glyph glyph-name="alpha" unicode="&#x3b1;" 
 />
    <glyph glyph-name="delta" unicode="&#x3b4;" 
 />
    <glyph glyph-name="epsilon" unicode="&#x3b5;" 
 />
    <glyph glyph-name="pi" unicode="&#x3c0;" 
 />
    <glyph glyph-name="sigma" unicode="&#x3c3;" 
 />
    <glyph glyph-name="tau" unicode="&#x3c4;" 
 />
    <glyph glyph-name="phi" unicode="&#x3c6;" 
 />
    <glyph glyph-name="glyph276" unicode="&#x2013;" horiz-adv-x="456" 
d="M-2 223v71h455v-71h-455v0z" />
    <glyph glyph-name="emdash" unicode="&#x2014;" horiz-adv-x="819" 
d="M0 223v71h819v-71h-819v0z" />
    <glyph glyph-name="underscoredbl" unicode="&#x2017;" 
 />
    <glyph glyph-name="quoteleft" unicode="&#x2018;" horiz-adv-x="182" 
d="M126 583v-102h-77v81q0 33 4.5 58.5t12.5 42.5t20.5 29.5t28.5 21.5l18 -33q-10 -6 -18 -14t-13 -19q-6 -10 -9 -26.5t-4 -39.5l37 1v0z" />
    <glyph glyph-name="quoteright" unicode="&#x2019;" horiz-adv-x="182" 
d="M47 613v102h78v-80q0 -35 -4.5 -61t-12.5 -43q-8 -16 -20 -29t-29 -22l-18 35q21 10 32 34.5t12 62.5l-38 1v0z" />
    <glyph glyph-name="quotesinglbase" unicode="&#x201a;" horiz-adv-x="182" 
d="M47 0v102h78v-81q0 -34 -4.5 -59.5t-12.5 -41.5q-8 -17 -20 -29.5t-29 -22.5l-18 35q21 10 32 34.5t12 62.5h-38v0z" />
    <glyph glyph-name="quotedblleft" unicode="&#x201c;" horiz-adv-x="272" 
d="M234 583v-102h-77v81q0 33 4 58.5t12 42.5t21 29.5t29 21.5l18 -33q-10 -6 -18.5 -14t-13.5 -19q-6 -10 -9 -26.5t-4 -39.5l38 1v0zM110 583v-102h-77v81q0 33 4 58.5t12 42.5t20.5 29.5t29.5 21.5l18 -33q-10 -6 -18.5 -14t-13.5 -19q-6 -10 -9 -26.5t-4 -39.5l38 1v0z
" />
    <glyph glyph-name="quotedblright" unicode="&#x201d;" horiz-adv-x="272" 
d="M34 613v102h78v-80q0 -35 -4.5 -61t-12.5 -43q-8 -16 -20.5 -29t-29.5 -22l-17 35q21 10 32 34.5t12 62.5l-38 1v0zM158 613v102h78v-80q0 -35 -4.5 -61t-12.5 -43q-7 -16 -19.5 -29t-29.5 -22l-18 35q10 4 18 12.5t13 18.5q6 11 9 27.5t4 38.5l-38 1v0z" />
    <glyph glyph-name="quotedblbase" unicode="&#x201e;" horiz-adv-x="272" 
d="M34 0v102h78v-81q0 -34 -4.5 -59.5t-12.5 -41.5q-8 -17 -20.5 -29.5t-29.5 -22.5l-17 35q21 10 32 34.5t12 62.5h-38v0zM158 0v102h78v-81q0 -34 -4.5 -59.5t-12.5 -41.5q-7 -17 -19.5 -29.5t-29.5 -22.5l-18 35q10 5 18 13t13 19q6 11 9 27.5t4 37.5h-38v0z" />
    <glyph glyph-name="dagger" unicode="&#x2020;" horiz-adv-x="456" 
d="M187 -168v590h-160v78h160v199h72v-199h161v-78h-161v-590h-72v0z" />
    <glyph glyph-name="daggerdbl" unicode="&#x2021;" horiz-adv-x="456" 
d="M188 -168v179h-161v79h161v354h-161v78h161v184h72v-184h162v-78h-162v-354h162v-79h-162v-179h-72v0z" />
    <glyph glyph-name="glyph287" unicode="&#x2022;" horiz-adv-x="287" 
d="M44 350q0 26 8 48t23 39q15 18 33 27t38 9t38 -9t33 -27q15 -17 22.5 -39t7.5 -49t-7.5 -49t-22.5 -40q-16 -17 -33.5 -26t-37.5 -9t-38 9t-33 26q-15 18 -23 40.5t-8 48.5v1z" />
    <glyph glyph-name="ellipsis" unicode="&#x2026;" horiz-adv-x="819" 
d="M95 0v100h82v-100h-82v0zM369 0v100h82v-100h-82v0zM642 0v100h82v-100h-82v0z" />
    <glyph glyph-name="perthousand" unicode="&#x2030;" horiz-adv-x="819" 
d="M127 -26l241 754h53l-241 -754h-53v0zM14 536q0 48 8 83t24 57q16 23 36.5 34t45.5 11q26 0 47 -11t37 -34q16 -22 24 -58.5t8 -86.5q0 -49 -7.5 -85t-24.5 -58q-16 -22 -36 -33t-46 -11q-25 0 -45.5 11.5t-37.5 33.5q-16 23 -24.5 59.5t-8.5 86.5v1zM74 532
q0 -38 4 -62.5t11 -37.5q8 -13 19 -20t24 -7q11 0 20 5.5t16 17.5q8 15 12.5 41t4.5 63t-4 62.5t-12 38.5q-7 14 -17.5 20.5t-23.5 6.5q-12 0 -21.5 -6t-15.5 -18q-9 -16 -13 -42t-4 -63v1zM305 164q0 48 8 83t24 57t36 33t45 11q26 0 47 -11t37 -33q17 -22 25 -58.5
t8 -86.5t-8 -85.5t-24 -57.5q-16 -20 -36.5 -31t-46.5 -11q-25 0 -45.5 11t-37.5 32q-16 23 -24 59.5t-8 86.5v1zM364 160q0 -38 4 -62.5t12 -38.5q8 -13 18.5 -19.5t24.5 -6.5q11 0 21 6.5t17 19.5q8 14 11.5 39t3.5 62t-4 62.5t-12 38.5q-7 14 -17.5 20.5t-24.5 6.5
q-12 0 -21 -6t-16 -18q-9 -16 -13 -42t-4 -63v1zM575 164q0 48 8 83t24 57t36 33t45 11q26 0 47 -11t37 -33q17 -22 25 -58.5t8 -86.5t-8 -85.5t-24 -57.5q-16 -20 -36.5 -31t-46.5 -11q-25 0 -45.5 11t-37.5 32q-16 23 -24 59.5t-8 86.5v1zM634 160q0 -38 4 -62.5t12 -38.5
q8 -13 19 -19.5t24 -6.5q11 0 21 6.5t17 19.5q8 14 11.5 39t3.5 62t-4 62.5t-12 38.5q-7 14 -17.5 20.5t-23.5 6.5q-12 0 -21.5 -6t-16.5 -18q-9 -16 -13 -42t-4 -63v1z" />
    <glyph glyph-name="guilsinglleft" unicode="&#x2039;" horiz-adv-x="272" 
d="M116 257l106 -222h-60l-126 222l126 223h60l-106 -223v0z" />
    <glyph glyph-name="guilsinglright" unicode="&#x203a;" horiz-adv-x="272" 
d="M156 258l-106 222h59l126 -222l-126 -223h-59l106 223v0z" />
    <glyph glyph-name="exclamdbl" unicode="&#x203c;" 
 />
    <glyph glyph-name="nsuperior" unicode="&#x207f;" 
 />
    <glyph glyph-name="franc" unicode="&#x20a3;" 
 />
    <glyph glyph-name="peseta" unicode="&#x20a7;" 
 />
    <glyph glyph-name="trademark" unicode="&#x2122;" horiz-adv-x="819" 
d="M196 317v339h-106v59h266v-59h-106v-339h-54v0zM393 317v398h80l83 -318l79 318h78v-398h-49v334l-84 -334h-49l-88 339v-339h-50v0z" />
    <glyph glyph-name="arrowleft" unicode="&#x2190;" 
 />
    <glyph glyph-name="arrowup" unicode="&#x2191;" 
 />
    <glyph glyph-name="arrowright" unicode="&#x2192;" 
 />
    <glyph glyph-name="arrowdown" unicode="&#x2193;" 
 />
    <glyph glyph-name="arrowboth" unicode="&#x2194;" 
 />
    <glyph glyph-name="arrowupdn" unicode="&#x2195;" 
 />
    <glyph glyph-name="arrowupdnbase" unicode="&#x21a8;" 
 />
    <glyph glyph-name="partialdiff" unicode="&#x2202;" 
 />
    <glyph glyph-name="Delta" unicode="&#x2206;" 
 />
    <glyph glyph-name="product" unicode="&#x220f;" 
 />
    <glyph glyph-name="minus" unicode="&#x2212;" 
 />
    <glyph glyph-name="fraction" unicode="&#x2215;" horiz-adv-x="137" 
d="M-182 -27l440 755h63l-440 -755h-63v0z" />
    <glyph glyph-name="periodcentered" unicode="&#x2219;" 
d="M75 302v100h82v-100h-82v0z" />
    <glyph glyph-name="radical" unicode="&#x221a;" 
 />
    <glyph glyph-name="infinity" unicode="&#x221e;" 
 />
    <glyph glyph-name="orthogonal" unicode="&#x221f;" 
 />
    <glyph glyph-name="intersection" unicode="&#x2229;" 
 />
    <glyph glyph-name="integral" unicode="&#x222b;" 
 />
    <glyph glyph-name="approxequal" unicode="&#x2248;" 
 />
    <glyph glyph-name="notequal" unicode="&#x2260;" 
 />
    <glyph glyph-name="equivalence" unicode="&#x2261;" 
 />
    <glyph glyph-name="lessequal" unicode="&#x2264;" 
 />
    <glyph glyph-name="greaterequal" unicode="&#x2265;" 
 />
    <glyph glyph-name="house" unicode="&#x2302;" 
 />
    <glyph glyph-name="revlogicalnot" unicode="&#x2310;" 
 />
    <glyph glyph-name="integraltp" unicode="&#x2320;" 
 />
    <glyph glyph-name="integralbt" unicode="&#x2321;" 
 />
    <glyph glyph-name="2500" unicode="&#x2500;" 
 />
    <glyph glyph-name="2502" unicode="&#x2502;" 
 />
    <glyph glyph-name="250c" unicode="&#x250c;" 
 />
    <glyph glyph-name="2510" unicode="&#x2510;" 
 />
    <glyph glyph-name="2514" unicode="&#x2514;" 
 />
    <glyph glyph-name="2518" unicode="&#x2518;" 
 />
    <glyph glyph-name="251c" unicode="&#x251c;" 
 />
    <glyph glyph-name="2524" unicode="&#x2524;" 
 />
    <glyph glyph-name="252c" unicode="&#x252c;" 
 />
    <glyph glyph-name="2534" unicode="&#x2534;" 
 />
    <glyph glyph-name="253c" unicode="&#x253c;" 
 />
    <glyph glyph-name="2550" unicode="&#x2550;" 
 />
    <glyph glyph-name="2551" unicode="&#x2551;" 
 />
    <glyph glyph-name="2552" unicode="&#x2552;" 
 />
    <glyph glyph-name="2553" unicode="&#x2553;" 
 />
    <glyph glyph-name="2554" unicode="&#x2554;" 
 />
    <glyph glyph-name="2555" unicode="&#x2555;" 
 />
    <glyph glyph-name="2556" unicode="&#x2556;" 
 />
    <glyph glyph-name="2557" unicode="&#x2557;" 
 />
    <glyph glyph-name="2558" unicode="&#x2558;" 
 />
    <glyph glyph-name="2559" unicode="&#x2559;" 
 />
    <glyph glyph-name="255a" unicode="&#x255a;" 
 />
    <glyph glyph-name="255b" unicode="&#x255b;" 
 />
    <glyph glyph-name="255c" unicode="&#x255c;" 
 />
    <glyph glyph-name="255d" unicode="&#x255d;" 
 />
    <glyph glyph-name="255e" unicode="&#x255e;" 
 />
    <glyph glyph-name="255f" unicode="&#x255f;" 
 />
    <glyph glyph-name="2560" unicode="&#x2560;" 
 />
    <glyph glyph-name="2561" unicode="&#x2561;" 
 />
    <glyph glyph-name="2562" unicode="&#x2562;" 
 />
    <glyph glyph-name="2563" unicode="&#x2563;" 
 />
    <glyph glyph-name="2564" unicode="&#x2564;" 
 />
    <glyph glyph-name="2565" unicode="&#x2565;" 
 />
    <glyph glyph-name="2566" unicode="&#x2566;" 
 />
    <glyph glyph-name="2567" unicode="&#x2567;" 
 />
    <glyph glyph-name="2568" unicode="&#x2568;" 
 />
    <glyph glyph-name="2569" unicode="&#x2569;" 
 />
    <glyph glyph-name="256a" unicode="&#x256a;" 
 />
    <glyph glyph-name="256b" unicode="&#x256b;" 
 />
    <glyph glyph-name="256c" unicode="&#x256c;" 
 />
    <glyph glyph-name="upblock" unicode="&#x2580;" 
 />
    <glyph glyph-name="dnblock" unicode="&#x2584;" 
 />
    <glyph glyph-name="block" unicode="&#x2588;" 
 />
    <glyph glyph-name="lfblock" unicode="&#x258c;" 
 />
    <glyph glyph-name="rtblock" unicode="&#x2590;" 
 />
    <glyph glyph-name="ltshade" unicode="&#x2591;" 
 />
    <glyph glyph-name="shade" unicode="&#x2592;" 
 />
    <glyph glyph-name="dkshade" unicode="&#x2593;" 
 />
    <glyph glyph-name="filledbox" unicode="&#x25a0;" 
 />
    <glyph glyph-name="filledrect" unicode="&#x25ac;" 
 />
    <glyph glyph-name="triagup" unicode="&#x25b2;" 
 />
    <glyph glyph-name="triagrt" unicode="&#x25ba;" 
 />
    <glyph glyph-name="triagdn" unicode="&#x25bc;" 
 />
    <glyph glyph-name="triaglf" unicode="&#x25c4;" 
 />
    <glyph glyph-name="lozenge" unicode="&#x25ca;" 
 />
    <glyph glyph-name="circle" unicode="&#x25cb;" 
 />
    <glyph glyph-name="invbullet" unicode="&#x25d8;" 
 />
    <glyph glyph-name="invcircle" unicode="&#x25d9;" 
 />
    <glyph glyph-name="smileface" unicode="&#x263a;" 
 />
    <glyph glyph-name="invsmileface" unicode="&#x263b;" 
 />
    <glyph glyph-name="sun" unicode="&#x263c;" 
 />
    <glyph glyph-name="female" unicode="&#x2640;" 
 />
    <glyph glyph-name="male" unicode="&#x2642;" 
 />
    <glyph glyph-name="spade" unicode="&#x2660;" 
 />
    <glyph glyph-name="club" unicode="&#x2663;" 
 />
    <glyph glyph-name="heart" unicode="&#x2665;" 
 />
    <glyph glyph-name="diamond" unicode="&#x2666;" 
 />
    <glyph glyph-name="musicalnote" unicode="&#x266a;" 
 />
    <glyph glyph-name="musicalnotedbl" unicode="&#x266b;" 
 />
    <glyph glyph-name="apple" unicode="&#xf000;" 
 />
    <glyph glyph-name="fi" unicode="&#xf001;" 
 />
    <glyph glyph-name="fl" unicode="&#xf002;" 
 />
    <glyph glyph-name="degree" horiz-adv-x="399" 
d="M62 592q0 28 10 52t30 43q20 20 43.5 30t51.5 10q29 0 53 -10t43 -30q20 -19 30 -43t10 -53q0 -28 -10 -52t-30 -44q-19 -19 -43 -29t-53 -10q-28 0 -51.5 10t-43.5 29q-20 20 -30 44t-10 52v1zM115 592q0 -18 6 -32.5t18 -26.5q13 -12 27.5 -18t31.5 -6t31 6t27 18
q12 12 18 26.5t6 31.5t-6 32t-18 27q-13 12 -27 18t-31 6t-31.5 -6t-27.5 -18q-12 -12 -18 -27t-6 -32v1z" />
    <glyph glyph-name="bullet" horiz-adv-x="287" 
d="M44 350q0 26 8 48t23 39q15 18 33 27t38 9t38 -9t33 -27q15 -17 22.5 -39t7.5 -49t-7.5 -49t-22.5 -40q-16 -17 -33.5 -26t-37.5 -9t-38 9t-33 26q-15 18 -23 40.5t-8 48.5v1z" />
    <glyph glyph-name="endash" horiz-adv-x="456" 
d="M-2 223v71h455v-71h-455v0z" />
    </font>
</defs>
</svg>
